<svg width="2347" height="1815" viewBox="0 0 2347 1815" fill="none" xmlns="http://www.w3.org/2000/svg">
<g clip-path="url(#clip0_10_2)">
<path d="M1464.77 382.059H547.292V1127.69H238L547.292 1459.73H872.05V753.419H1364.28L1464.77 382.059Z" stroke="#46FF09" stroke-width="42"/>
<path d="M1948.26 382.059H1658.46L1555.06 751.962H1659.91V1459.73H1948.26V382.059Z" stroke="#46FF09" stroke-width="42"/>
<path d="M1429.9 971.866H1102.12V1234.08H1429.9V971.866Z" stroke="#46FF09" stroke-width="42"/>
<mask id="mask0_10_2" style="mask-type:alpha" maskUnits="userSpaceOnUse" x="7" y="65" width="2250" height="1692">
<path d="M1461.77 382.059L541.379 377.69L544.292 1127.69L232.642 1129.15L547.205 1459.73L870.506 1462.64L869.049 751.962L1361.28 753.418L1461.77 382.059Z" fill="black"/>
<path d="M1945.26 382.059H1655.46L1552.06 751.962H1656.91L1655.46 1459.73L1948.18 1458.27L1945.26 382.059Z" fill="black"/>
<path d="M1426.9 971.866H1099.12V1234.08H1426.9V971.866Z" fill="black"/>
</mask>
<g mask="url(#mask0_10_2)">
<rect x="274" y="1127" width="42" height="42" fill="#46FF09"/>
<mask id="path-8-inside-1_10_2" fill="white">
<path d="M-2049.79 1379.39L-2043.38 1385.5L-777.412 2651.7L-771.153 2657.97V3596.95L-777.412 3603.36L-923.37 3749.32V3800.61L-789.182 3934.49H-624.447V3878.14H-460.742V3934.49H-268.276V3933C-276.039 3926.19 -280.947 3916.14 -280.947 3904.98C-280.947 3884.39 -264.406 3867.85 -243.819 3867.85C-223.233 3867.85 -206.548 3884.39 -206.548 3904.98C-206.548 3918.97 -214.383 3931.12 -225.783 3937.48V3977.13H-460.75V4091.34H-187.473L-120.829 4024.69V3748.42L-79.527 3706.98H225.213V3747.67H281.865L332.411 3674.02C325.412 3666.8 320.931 3657.15 320.931 3646.45C320.931 3624.11 339.619 3606.04 362.676 3606.04C385.724 3606.04 404.42 3624.11 404.42 3646.45C404.42 3668.78 385.724 3686.85 362.676 3686.85C356.915 3686.85 351.413 3685.61 346.425 3683.57L293.345 3760.94L290.666 3764.67H225.213V3807.46H80.7511L63.4544 3872.31L105.771 3914.63V5586.01H295.139V5891.91H-16.0047V5875.95H-72.0615C-78.8836 5879.45 -86.5341 5881.32 -94.7238 5881.32C-122.326 5881.32 -144.666 5858.97 -144.666 5831.37C-144.666 5803.78 -122.326 5781.43 -94.7238 5781.43C-92.8091 5781.43 -90.9185 5781.51 -89.0601 5781.72V5777.7H-16.0047V5752.21L195.254 5747.58L82.537 5634.72H-444.789L-536.629 5542.73H-590.899V5710.91H-644.873V5822.13H-645.315C-644.535 5825.13 -644.277 5828.12 -644.277 5831.37C-644.277 5851.96 -660.962 5868.79 -681.549 5868.79C-702.136 5868.79 -718.668 5851.96 -718.668 5831.37C-718.668 5825.59 -717.293 5820.3 -714.943 5815.42V5733.57L-750.429 5698.23V5040.9L-775.328 5034.34L-803.059 5081.9C-802.866 5083.41 -802.464 5084.8 -802.464 5086.37C-802.464 5106.95 -819.294 5123.94 -839.88 5123.94C-860.467 5123.94 -877.152 5106.95 -877.152 5086.37C-877.152 5084.63 -876.782 5082.99 -876.557 5081.3V5015.4L-816.325 4955.17H-752.811V4923.42H-583.008V5087.71L-562.131 5075.79V4886.58H-776.969L-724.637 4834.4V4419.33L-765.489 4348.66V4551.86H-803.501V4653.4H-875.069V4575.57L-917.859 4532.78V4530.1H-1001.05L-1008.5 4522.65L-1092.44 4439H-1158.34L-1251.67 4532.04L-1259.12 4539.49H-3010.77L-3018.22 4532.04L-3080 4470.17V4397.7L-2989.25 4488.33H-1279.83L-1186.79 4395.3L-1179.49 4387.84H-1070.95L-1063.5 4395.3L-979.853 4479.08H-917.682V4148.4L-860.435 4091.3H-624.27V3977.09H-806.751L-812.866 3970.98L-959.419 3824.43L-965.678 3818.16V3731.69L-959.419 3725.28L-813.461 3579.47V2675.53L-2067.26 1421.85H-2269.74L-2255.01 1379.39H-2049.79Z"/>
</mask>
<path d="M-2049.79 1379.39L-2043.38 1385.5L-777.412 2651.7L-771.153 2657.97V3596.95L-777.412 3603.36L-923.37 3749.32V3800.61L-789.182 3934.49H-624.447V3878.14H-460.742V3934.49H-268.276V3933C-276.039 3926.19 -280.947 3916.14 -280.947 3904.98C-280.947 3884.39 -264.406 3867.85 -243.819 3867.85C-223.233 3867.85 -206.548 3884.39 -206.548 3904.98C-206.548 3918.97 -214.383 3931.12 -225.783 3937.48V3977.13H-460.75V4091.34H-187.473L-120.829 4024.69V3748.42L-79.527 3706.98H225.213V3747.67H281.865L332.411 3674.02C325.412 3666.8 320.931 3657.15 320.931 3646.45C320.931 3624.11 339.619 3606.04 362.676 3606.04C385.724 3606.04 404.42 3624.11 404.42 3646.45C404.42 3668.78 385.724 3686.85 362.676 3686.85C356.915 3686.85 351.413 3685.61 346.425 3683.57L293.345 3760.94L290.666 3764.67H225.213V3807.46H80.7511L63.4544 3872.31L105.771 3914.63V5586.01H295.139V5891.91H-16.0047V5875.95H-72.0615C-78.8836 5879.45 -86.5341 5881.32 -94.7238 5881.32C-122.326 5881.32 -144.666 5858.97 -144.666 5831.37C-144.666 5803.78 -122.326 5781.43 -94.7238 5781.43C-92.8091 5781.43 -90.9185 5781.51 -89.0601 5781.72V5777.7H-16.0047V5752.21L195.254 5747.58L82.537 5634.72H-444.789L-536.629 5542.73H-590.899V5710.91H-644.873V5822.13H-645.315C-644.535 5825.13 -644.277 5828.12 -644.277 5831.37C-644.277 5851.96 -660.962 5868.79 -681.549 5868.79C-702.136 5868.79 -718.668 5851.96 -718.668 5831.37C-718.668 5825.59 -717.293 5820.3 -714.943 5815.42V5733.57L-750.429 5698.23V5040.9L-775.328 5034.34L-803.059 5081.9C-802.866 5083.41 -802.464 5084.8 -802.464 5086.37C-802.464 5106.95 -819.294 5123.94 -839.88 5123.94C-860.467 5123.94 -877.152 5106.95 -877.152 5086.37C-877.152 5084.63 -876.782 5082.99 -876.557 5081.3V5015.4L-816.325 4955.17H-752.811V4923.42H-583.008V5087.71L-562.131 5075.79V4886.58H-776.969L-724.637 4834.4V4419.33L-765.489 4348.66V4551.86H-803.501V4653.4H-875.069V4575.57L-917.859 4532.78V4530.1H-1001.05L-1008.5 4522.65L-1092.44 4439H-1158.34L-1251.67 4532.04L-1259.12 4539.49H-3010.77L-3018.22 4532.04L-3080 4470.17V4397.7L-2989.25 4488.33H-1279.83L-1186.79 4395.3L-1179.49 4387.84H-1070.95L-1063.5 4395.3L-979.853 4479.08H-917.682V4148.4L-860.435 4091.3H-624.27V3977.09H-806.751L-812.866 3970.98L-959.419 3824.43L-965.678 3818.16V3731.69L-959.419 3725.28L-813.461 3579.47V2675.53L-2067.26 1421.85H-2269.74L-2255.01 1379.39H-2049.79Z" stroke="#46FF09" stroke-width="28" mask="url(#path-8-inside-1_10_2)"/>
<path d="M380.377 374.383L380.37 374.376L380.04 374.045M380.377 374.383L382.947 371.807V371.814V374.045H380.714H380.701H380.04M380.377 374.383L608.787 602.937L608.929 603.08L609.079 603.213L609.417 603.515V902.286V905.186L611.468 907.236L848.38 1144.15L848.857 1144.68V2487.33L848.39 2487.85L812.022 2523.93L809.952 2525.99V2528.9V3488.01V3490.91L812.002 3492.96L961.685 3642.64L963.735 3644.69H966.634H1049.23H1054.89L1056.08 3639.16C1059.29 3624.13 1073.49 3612.49 1090.53 3612.49C1109.94 3612.49 1125.28 3627.64 1125.28 3645.9C1125.28 3664.15 1109.94 3679.3 1090.53 3679.3C1073.71 3679.3 1059.77 3667.95 1056.35 3653.12L1055.1 3647.69H1049.53H962.624L962.332 3647.36L962.192 3647.2L962.043 3647.06L806.953 3491.97V2524.79L807.273 2524.47L807.284 2524.46L843.805 2488.09L845.866 2486.04V2483.13V1148.6V1145.69L843.811 1143.64L606.76 907.033L606.281 906.493V607.538V604.635L604.227 602.584L380.95 379.669L378.9 377.623H376.004H197.247H194.361L192.313 379.658L120.15 451.37L120.142 451.378L120.135 451.386L119.804 451.716H-1828.33H-1831.24L-1833.29 453.773L-1955.69 576.477L-1956.23 576.951H-1969.43L-1968.19 573.381H-1960.35H-1957.44L-1955.39 571.324L-1833.15 448.783L-1833.13 448.769L-1832.51 448.146H115.632H118.536L120.587 446.091L191.993 374.528L191.538 374.045H189.725V372.122L187.193 369.437L189.725 371.963L380.377 374.383ZM380.04 374.045H192.505M380.04 374.045H192.505M192.505 374.045L192.146 374.379L191.812 374.045H192.505Z" stroke="#46FF09" stroke-width="14"/>
<path d="M363.352 489.364L360.809 493.973L364.531 497.696L536.322 669.487V931.223V934.123L538.373 936.173L778.038 1175.84L778.593 1176.43V2092.54L778.038 2093.13L489.63 2381.4L487.578 2383.45V2386.35V2626.69V2629.59L489.629 2631.64L736.823 2878.83L736.969 2878.98L737.122 2879.11L737.452 2879.41V3535.93L736.816 3536.57L736.814 3536.57L697.451 3576.08L692.298 3581.25L697.682 3586.18C704.359 3592.29 708.531 3601.04 708.531 3610.53C708.531 3628.78 693.187 3643.94 673.786 3643.94C655.585 3643.94 640.751 3630.49 639.003 3613.83L639.002 3613.82C638.978 3613.6 638.969 3613.31 638.984 3612.75C638.987 3612.65 638.992 3612.51 638.998 3612.34C639.016 3611.85 639.041 3611.14 639.041 3610.53C639.041 3592.28 654.376 3577.13 673.786 3577.13C677.531 3577.13 681.111 3577.77 684.639 3578.89L688.67 3580.17L691.676 3577.19L732.375 3536.94L734.453 3534.89V3531.97V2883.42V2880.52L732.403 2878.47L485.063 2631.13L484.58 2630.58V2382.15L485.064 2381.61L773.561 2093.12L775.611 2091.07V2088.17V1180.65V1177.75L773.559 1175.7L533.819 936.108L533.34 935.57V673.756V670.856L531.29 668.806L363.273 500.773L358.982 496.482L354.126 500.12C348.221 504.544 340.849 507.225 332.834 507.218H332.826C313.453 507.225 298.084 491.956 298.084 473.672V472.413C298.765 454.727 313.846 440.262 332.804 440.262C352.216 440.262 367.557 455.415 367.557 473.664C367.557 479.214 365.984 484.593 363.352 489.364ZM526.34 673.756L358.323 505.722C351.267 511.008 342.434 514.226 332.828 514.218L526.34 673.756Z" stroke="#46FF09" stroke-width="14"/>
<path d="M367.208 845.945L362.56 843.274L358.77 847.064L313.59 892.244L311.54 894.295V897.194V1013.33V1016.24L313.6 1018.29L351.323 1055.86L353.371 1057.9H356.262H488.225L488.762 1058.38L656.347 1226.12L656.494 1226.26L656.649 1226.4L656.978 1226.69V1808.58L656.64 1808.88L656.491 1809.02L656.35 1809.16L226.818 2238.68L224.768 2240.73V2243.63V2561.2V2564.09L226.818 2566.15L522.62 2861.94L522.693 2862.01L522.768 2862.08L523.104 2862.4V3267.24L522.768 3267.56L522.689 3267.63L522.612 3267.71L476.394 3314.07L474.352 3316.12V3319.01V3443.34L474.022 3443.64L473.862 3443.78L473.712 3443.93L374.414 3543.37L374.266 3543.52L374.128 3543.67L373.836 3544H317.647H314.747L312.697 3546.05L245.16 3613.59L244.677 3614.07H-58.0645H-62.9452L-64.6327 3618.65C-69.3848 3631.55 -82.2446 3641.06 -97.42 3641.06C-116.829 3641.06 -132.165 3625.91 -132.165 3607.66V3607.65C-132.165 3589.4 -116.823 3574.25 -97.42 3574.25C-78.9851 3574.25 -64.387 3587.71 -62.9479 3604.66L-62.4038 3611.07H-55.973H240.569H243.473L245.524 3609.01L312.909 3541.48L313.448 3541H369.826H372.729L374.779 3538.94L469.307 3444.27L471.353 3442.22V3439.33V3314.66L471.827 3314.13L517.893 3268.37L519.96 3266.31V3263.4V2866.38V2863.48L517.91 2861.43L222.406 2565.93L222.337 2565.86L222.266 2565.8L221.777 2565.33V2239.61L222.115 2239.31L222.264 2239.17L222.406 2239.03L651.929 1809.51L653.98 1807.46V1804.56V1230.71V1227.81L651.927 1225.76L488.979 1062.95L486.929 1060.91H484.031H351.77L351.236 1060.43L308.736 1017.79L308.727 1017.78L308.396 1017.45V893.231L355.846 845.782L360.096 841.531L356.537 836.687C352.526 831.227 350.141 824.578 350.141 817.429C350.141 799.185 365.486 784.02 384.886 784.02C404.293 784.02 419.631 799.184 419.631 817.429C419.631 835.73 404.303 850.831 384.886 850.831C378.466 850.831 372.529 849.004 367.208 845.945Z" stroke="#46FF09" stroke-width="14"/>
<path d="M392.165 1387.46L389.981 1383.37L385.359 1383.78L362.254 1385.87L359.725 1386.09L357.931 1387.89L32.3143 1713.8L30.2664 1715.85V1718.75V2651.02V2653.92L32.3137 2655.97L289.788 2913.75L289.79 2913.75L291.467 2915.43V3084.14H290.681L288.665 3087.67L281.505 3100.19L280.583 3101.81V3103.67V3497.52L279.137 3499.1L278.999 3499.25L237.095 3542.33L237.082 3542.35L237.069 3542.36L235.256 3544.24H-308.18H-311.073L-313.122 3546.29L-358.439 3591.46L-361.012 3594.02L-360.396 3597.6C-360.085 3599.41 -359.902 3600.98 -359.902 3602.53C-359.902 3619.21 -373.568 3632.8 -390.327 3632.8C-407.047 3632.8 -420.599 3619.25 -420.599 3602.53V3602.51C-420.599 3585.82 -407.085 3572.39 -390.327 3572.39C-383.259 3572.39 -376.667 3575.05 -371.301 3579.35L-366.4 3583.27L-361.966 3578.82L-317.687 3534.4L-317.679 3534.39L-316.013 3532.73H227.504H230.464L232.526 3530.6L267.111 3494.97L269.089 3492.93V3490.1V3098.87L269.897 3097.63L270.021 3097.44L270.133 3097.24L279.079 3081.28L279.973 3079.69V3077.86V2922.96V2920.07L277.923 2918.01L20.4521 2660.54L20.4467 2660.54L18.7723 2658.86V1711L20.3476 1709.49L20.3987 1709.44L20.4489 1709.39L353.172 1376.38L354.801 1374.82L356.827 1374.61L356.875 1374.61L382.321 1372.22L387.605 1371.73L388.555 1366.5C391.37 1351.02 405.617 1339.01 422.962 1339.01C442.346 1339.01 457.562 1354.08 457.562 1372.41C457.562 1390.69 442.339 1405.81 422.962 1405.81C409.47 1405.81 397.927 1398.27 392.165 1387.46Z" stroke="#46FF09" stroke-width="14"/>
<path d="M119.505 2979.13C119.601 2975.2 117.863 2971.44 114.814 2968.96L119.505 2979.13ZM119.505 2979.13C119.416 2983.07 117.525 2986.74 114.364 2989.09L119.505 2979.13Z" stroke="#46FF09" stroke-width="14"/>
<path d="M1018.72 1267.01L1017.39 1261.72H1011.94H930.384H927.485L925.435 1263.77L886.369 1302.83L884.318 1304.88V1307.78V2616.8V2619.7L886.366 2621.75L1024.87 2760.4L1024.94 2760.48L1025.03 2760.55L1025.35 2760.86V2895.7L1025.03 2896.01L1024.95 2896.09L1024.87 2896.16L974.323 2946.71L974.178 2946.86L974.042 2947.01L973.749 2947.34H917.85H914.934L912.881 2949.41L876.502 2986.09L874.472 2988.13V2991.02V3383.86V3386.76L876.522 3388.81L923.488 3435.78L927.745 3440.03L932.591 3436.46C938.393 3432.19 945.779 3429.63 953.779 3429.63C973.191 3429.63 988.53 3444.78 988.524 3463.03L988.524 3463.03C988.53 3481.35 973.124 3496.73 953.779 3496.73C935.625 3496.73 920.758 3483.18 918.998 3466.49C918.949 3466 918.961 3465.72 918.984 3465.22C919.005 3464.78 919.034 3464.15 919.034 3463.03C919.034 3457.49 920.726 3452.17 923.508 3447.23L926.118 3442.6L922.35 3438.84L871.804 3388.45L871.804 3388.45L871.481 3388.12V2986.71L871.82 2986.37L913.565 2944.62L913.895 2944.29H969.74H972.646L974.698 2942.23L1020.32 2896.46L1022.36 2894.41V2891.52V2765.09V2762.19L1020.31 2760.14L881.959 2621.64L881.956 2621.63L881.32 2621V1303.77L881.649 1303.48L881.807 1303.34L881.956 1303.19L925.793 1259.35L925.938 1259.21L926.075 1259.05L926.368 1258.72H1011.19H1017.24L1018.11 1252.73C1020.64 1235.41 1035.34 1222.34 1053.38 1222.34C1073.21 1222.34 1089.17 1238.27 1089.17 1258.13C1089.17 1278.01 1073.14 1294.22 1053.38 1294.22C1036.67 1294.22 1022.66 1282.64 1018.72 1267.01ZM868.44 3391.82V3391.82Z" stroke="#46FF09" stroke-width="14"/>
<path d="M3573.87 1646.45L3573.8 1646.52L3573.73 1646.6L3573.42 1646.93H3425.7H3422.8L3420.75 1648.98L3140.32 1929.43L3140.32 1929.44L3139.98 1929.77H2291.42H2288.52L2286.47 1931.82L2154.67 2063.62L2152.62 2065.67V2068.57V2248.24L2152.14 2248.78L1349.88 3050.75L1347.83 3052.8V3055.7V3200.82L1347.57 3201.12L1347.48 3201.22L1308.95 3243.62L1307.13 3245.62V3248.32V3336.66L1306.8 3336.99L1306.79 3337L1259.23 3384.56L1259.22 3384.57L1258.89 3384.9H1258.66H1258.58L1258.5 3384.9L1154.07 3387.28H1153.09L1152.57 3386.62L1152.52 3386.54L1117.98 3341.15L1114.35 3336.38L1109.08 3339.22C1103.88 3342.03 1098.27 3343.75 1092.28 3343.75C1073.13 3343.75 1057.93 3328.99 1057.54 3311.05L1057.54 3310.33C1057.55 3292.01 1072.95 3276.63 1092.29 3276.63C1111.6 3276.63 1126.89 3291.98 1126.89 3310.32C1126.89 3317.71 1124.26 3324.52 1119.86 3330.18L1116.55 3334.45L1119.84 3338.73L1152.63 3381.52L1154.8 3384.35L1158.36 3384.26L1255.12 3381.88L1257.92 3381.81L1259.9 3379.83L1302.09 3337.64L1304.14 3335.59V3332.69V3244.65L1304.47 3244.32L1304.6 3244.19L1304.73 3244.05L1343.04 3201.56L1344.84 3199.56V3196.87V3051.72L1345.47 3051.1L1345.48 3051.09L2147.59 2248.68L2149.64 2246.63V2243.73V2064.29L2149.97 2063.96L2287.17 1926.75H3136.03H3138.93L3140.98 1924.7L3421.42 1644.27L3421.75 1643.94H3569.29H3572.19L3574.24 1641.88L3677.28 1538.83L3678.42 1542.11L3573.87 1646.45Z" stroke="#46FF09" stroke-width="14"/>
<path d="M407.564 1208.56L405.734 1204.35H401.144H388.618H385.719L383.669 1206.4L-82.6839 1672.61L-84.7349 1674.66V1677.56V2675.58V2678.48L-82.6833 2680.53L181.938 2945L181.945 2945.01L183.618 2946.69V3077.75L127.23 3134.14L125.18 3136.19V3139.09V3196.79V3199.69L127.238 3201.75L212.326 3286.56L207.866 3291.03L216.31 3295.44C227.311 3301.18 234.613 3312.04 234.606 3324.56V3324.57C234.613 3342.81 219.274 3357.97 199.861 3357.97C180.492 3357.97 165.269 3342.85 165.269 3324.56C165.269 3310.17 174.785 3297.81 188.409 3293.17L199.055 3289.55L191.103 3281.59L113.686 3204.18V3131.56L170.073 3075.17L172.123 3073.12V3070.22V2954.37V2951.47L170.071 2949.42L-94.7073 2684.93L-94.7102 2684.93L-96.374 2683.26V1670.16L380.93 1192.85H399.205H404.63L405.984 1187.6C409.703 1173.17 423.197 1162.29 439.606 1162.29C459.017 1162.29 474.351 1177.44 474.351 1195.69C474.351 1214.01 458.947 1229.4 439.606 1229.4C425.189 1229.4 412.818 1220.65 407.564 1208.56Z" stroke="#46FF09" stroke-width="14"/>
<path d="M682.673 870.952V873.85L684.722 875.9L955.174 1146.51L957.225 1148.56H960.125H1117.05L1117.39 1148.9L1117.4 1148.9L1164.8 1196.01L1165.28 1196.54V1338.99L1164.8 1339.53L1139.6 1364.72L1139.06 1365.2H981.444H978.545L976.494 1367.25L959.793 1383.95L957.743 1386.01V1388.9V2559.41V2562.31L959.793 2564.36L1151.07 2755.64L1151.08 2755.65L1151.41 2755.98V2991.79L1150.92 2992.33L952.778 3190.48L950.728 3192.53V3195.43V3280.11V3286.23L956.79 3287.05C973.848 3289.35 986.664 3303.4 986.664 3320.07C986.664 3338.32 971.323 3353.47 951.912 3353.47C932.509 3353.47 917.167 3338.32 917.167 3320.07C917.167 3304.91 927.731 3292.04 942.549 3288.07L947.737 3286.68V3281.31V3191.17L1146.36 2992.55L1148.41 2990.5V2987.6V2760.08V2757.18L1146.36 2755.13L955.383 2564L955.381 2564L954.744 2563.36V1384.64L955.381 1384.01L976.853 1362.54L977.184 1362.2H1134.86H1137.79L1139.85 1360.12L1160.27 1339.39L1162.29 1337.35V1334.48V1201.05V1198.16L1160.24 1196.11L1117.9 1153.61L1115.84 1151.56H1112.94H956.11L955.808 1151.22L955.675 1151.07L955.532 1150.93L680.162 875.7L679.682 875.159V586.34V583.441L677.632 581.391L404.951 308.71L402.901 306.659H400.001H156.54H153.645L151.595 308.704L82.715 377.431L82.7092 377.437L82.0726 378.074H-1863.67H-1866.57L-1868.62 380.124L-1918.47 429.972L-1916.28 423.66L-1867.92 375.406L-1867.92 375.404L-1867.58 375.067H77.8204H80.7111L82.7594 373.027L151.937 304.147L152.02 304.065L152.1 303.98L152.407 303.653H404.373L404.889 304.135L405.037 304.279L682.037 581.436L682.043 581.442L682.673 582.074V870.952Z" stroke="#46FF09" stroke-width="14"/>
<path d="M34.53 3281.05C36.6757 3280.61 39.1754 3280.45 41.9462 3280.44C61.3432 3280.46 76.6765 3295.61 76.6765 3313.85C76.6765 3332.13 61.3 3347.4 41.9318 3347.4C23.728 3347.4 8.89056 3333.95 7.14899 3317.3L7.14758 3317.28C7.125 3317.07 7.11444 3316.74 7.13031 3316.13C7.13336 3316.01 7.13879 3315.85 7.14514 3315.66C7.16266 3315.15 7.18695 3314.44 7.18695 3313.85C7.18695 3306.9 9.49005 3300.36 13.3397 3294.95L14.6365 3293.13V3290.89V3111.22V3108.32L12.5862 3106.27L-73.6238 3020.06V2961.09V2958.19L-75.67 2956.14L-248.618 2782.91L-248.713 2782.81L-248.81 2782.72L-250.595 2781.06V2129.02V2126.12L-252.645 2124.07L-607.177 1769.53L-607.182 1769.53L-608.857 1767.85V1575.65L-607.182 1573.97L-607.177 1573.97L-564.842 1531.63L-562.792 1529.58V1526.68V1265.47V1262.57L-564.848 1260.52L-701.549 1124.11L-701.554 1124.11L-703.231 1122.43V1049.45V1045.42L-706.713 1043.4C-717.179 1037.32 -722.679 1027.24 -723.645 1014.77C-723.135 1004.71 -719.191 997.064 -713.219 991.623C-707.142 986.086 -698.596 982.511 -688.577 981.475C-669.324 981.648 -654.16 996.731 -654.16 1014.87C-654.16 1031.91 -667.515 1045.97 -685.269 1047.71L-691.584 1048.33V1054.68V1114.77V1117.67L-689.534 1119.72L-551.29 1257.96V1534.39L-552.946 1536.05L-552.964 1536.07L-595.295 1578.09L-597.363 1580.15V1583.06V1760.33V1763.23L-595.312 1765.28L-239.093 2121.49V2773.54V2776.44L-237.04 2778.49L-63.6574 2951.74L-63.654 2951.74L-61.9767 2953.41V3012.38V3015.28L-59.9309 3017.33L24.4516 3101.86L24.4561 3101.87L26.1307 3103.54V3274.19V3282.76L34.53 3281.05Z" stroke="#46FF09" stroke-width="14"/>
<path d="M2923.7 747.937H2920.8L2918.75 749.986L2263.34 1405.1L2263.2 1405.24L2263.06 1405.4L2262.77 1405.73H2022.89H2019.99L2017.94 1407.78L1468.85 1956.88L1469.18 1957.21L1468.85 1956.88L1468.52 1957.21H1420.73H1413.73V1964.21V1964.21V1964.21V1964.21V1964.22V1964.22V1964.22V1964.22V1964.22V1964.22V1964.23V1964.23V1964.23V1964.23V1964.23V1964.23V1964.24V1964.24V1964.24V1964.24V1964.24V1964.24V1964.24V1964.25V1964.25V1964.25V1964.25V1964.25V1964.25V1964.26V1964.26V1964.26V1964.26V1964.26V1964.26V1964.27V1964.27V1964.27V1964.27V1964.27V1964.27V1964.28V1964.28V1964.28V1964.28V1964.28V1964.28V1964.28V1964.29V1964.29V1964.29V1964.29V1964.29V1964.29V1964.3V1964.3V1964.3V1964.3V1964.3V1964.3V1964.3V1964.31V1964.31V1964.31V1964.31V1964.31V1964.31V1964.32V1964.32V1964.32V1964.32V1964.32V1964.32V1964.32V1964.33V1964.33V1964.33V1964.33V1964.33V1964.33V1964.33V1964.34V1964.34V1964.34V1964.34V1964.34V1964.34V1964.35V1964.35V1964.35V1964.35V1964.35V1964.35V1964.35V1964.36V1964.36V1964.36V1964.36V1964.36V1964.36V1964.36V1964.37V1964.37V1964.37V1964.37V1964.37V1964.37V1964.37V1964.38V1964.38V1964.38V1964.38V1964.38V1964.38V1964.39V1964.39V1964.39V1964.39V1964.39V1964.39V1964.39V1964.4V1964.4V1964.4V1964.4V1964.4V1964.4V1964.4V1964.41V1964.41V1964.41V1964.41V1964.41V1964.41V1964.41V1964.42V1964.42V1964.42V1964.42V1964.42V1964.42V1964.42V1964.43V1964.43V1964.43V1964.43V1964.43V1964.43V1964.43V1964.44V1964.44V1964.44V1964.44V1964.44V1964.44V1964.44V1964.45V1964.45V1964.45V1964.45V1964.45V1964.45V1964.45V1964.45V1964.46V1964.46V1964.46V1964.46V1964.46V1964.46V1964.46V1964.47V1964.47V1964.47V1964.47V1964.47V1964.47V1964.47V1964.48V1964.48V1964.48V1964.48V1964.48V1964.48V1964.48V1964.49V1964.49V1964.49V1964.49V1964.49V1964.49V1964.49V1964.5V1964.5V1964.5V1964.5V1964.5V1964.5V1964.5V1964.51V1964.51V1964.51V1964.51V1964.51V1964.51V1964.51V1964.51V1964.52V1964.52V1964.52V1964.52V1964.52V1964.52V1964.52V1964.53V1964.53V1964.53V1964.53V1964.53V1964.53V1964.53V1964.54V1964.54V1964.54V1964.54V1964.54V1964.54V1964.54V1964.54V1964.55V1964.55V1964.55V1964.55V1964.55V1964.55V1964.55V1964.56V1964.56V1964.56V1964.56V1964.56V1964.56V1964.56V1964.57V1964.57V1964.57V1964.57V1964.57V1964.57V1964.57V1964.58V1964.58V1964.58V1964.58V1964.58V1964.58V1964.58V1964.58V1964.59V1964.59V1964.59V1964.59V1964.59V1964.59V1964.59V1964.6V1964.6V1964.6V1964.6V1964.6V1964.6V1964.6V1964.61V1964.61V1964.61V1964.61V1964.61V1964.61V1964.61V1964.61V1964.62V1964.62V1964.62V1964.62V1964.62V1964.62V1964.62V1964.63V1964.63V1964.63V1964.63V1964.63V1964.63V1964.63V1964.64V1964.64V1964.64V1964.64V1964.64V1964.64V1964.64V1964.64V1964.65V1964.65V1964.65V1964.65V1964.65V1964.65V1964.65V1964.66V1964.66V1964.66V1964.66V1964.66V1964.66V1964.66V1964.67V1964.67V1964.67V1964.67V1964.67V1964.67V1964.67V1964.68V1964.68V1964.68V1964.68V1964.68V1964.68V1964.68V1964.69V1964.69V1964.69V1964.69V1964.69V1964.69V1964.69V1964.69V1964.7V1964.7V1964.7V1964.7V1964.7V1964.7V1964.7V1964.71V1964.71V1964.71V1964.71V1964.71V1964.71V1964.71V1964.72V1964.72V1964.72V1964.72V1964.72V1964.72V1964.72V1964.73V1964.73V1964.73V1964.73V1964.73V1964.73V1964.73V1964.74V1964.74V1964.74V1964.74V1964.74V1964.74V1964.74V1964.75V1964.75V1964.75V1964.75V1964.75V1964.75V1964.75V1964.76V1964.76V1964.76V1964.76V1964.76V1964.76V1964.76V1964.77V1964.77V1964.77V1964.77V1964.77V1964.77V1964.77V1964.78V1964.78V1964.78V1964.78V1964.78V1964.78V1964.78V1964.79V1964.79V1964.79V1964.79V1964.79V1964.79V1964.79V1964.8V1964.8V1964.8V1964.8V1964.8V1964.8V1964.8V1964.81V1964.81V1964.81V1964.81V1964.81V1964.81V1964.82V1964.82V1964.82V1964.82V1964.82V1964.82V1964.82V1964.83V1964.83V1964.83V1964.83V1964.83V1964.83V1964.83V1964.84V1964.84V1964.84V1964.84V1964.84V1964.84V1964.85V1964.85V1964.85V1964.85V1964.85V1964.85V1964.85V1964.86V1964.86V1964.86V1964.86V1964.86V1964.86V1964.87V1964.87V1964.87V1964.87V1964.87V1964.87V1964.87V1964.88V1964.88V1964.88V1964.88V1964.88V1964.88V1964.89V1964.89V1964.89V1964.89V1964.89V1964.89V1964.89V1964.9V1964.9V1964.9V1964.9V1964.9V1964.9V1964.91V1964.91V1964.91V1964.91V1964.91V1964.91V1964.92V1964.92V1964.92V1964.92V1964.92V1964.92V1964.92V1964.93V1964.93V1964.93V1964.93V1964.93V1964.93V1964.94V1964.94V1964.94V1964.94V1964.94V1964.94V1964.95V1964.95V1964.95V1964.95V1964.95V1964.95V1964.96V1964.96C1413.73 1970.01 1412.56 1974.92 1410.58 1979.45L1408.67 1983.83L1412.04 1987.2L1463.97 2039.12V2739.38L1463.63 2739.74L1463.48 2739.9L1300.39 2902.71L1298.33 2904.76V2907.66V3201.17L1297.7 3201.8L1297.69 3201.8L1243.28 3256.21L1241.23 3258.26V3261.16V3270.41V3276.14L1246.85 3277.27C1262.74 3280.46 1274.48 3294.3 1274.48 3310.36C1274.48 3328.61 1259.14 3343.77 1239.73 3343.77C1221.53 3343.77 1206.7 3330.32 1204.95 3313.66L1204.89 3313.11C1204.89 3312.96 1204.89 3312.78 1204.9 3312.55C1204.9 3312.45 1204.91 3312.31 1204.91 3312.14C1204.93 3311.65 1204.96 3310.94 1204.96 3310.33C1204.96 3294.27 1216.69 3280.43 1232.58 3277.25L1238.21 3276.12V3270.38V3256.87L1238.54 3256.54L1238.54 3256.53L1293.26 3201.83L1295.31 3199.78V3196.88V2903.68L1295.64 2903.35L1295.64 2903.35L1458.9 2739.8L1460.94 2737.76V2734.86V2043.37V2040.47L1458.89 2038.42L1411.77 1991.31L1406.99 1986.53L1402.05 1991.14C1395.55 1997.21 1387.13 2001.04 1377.9 2001.04C1358.16 2001.04 1342.11 1984.82 1342.11 1964.95C1342.11 1945.14 1358.1 1929.16 1377.9 1929.16C1392.34 1929.16 1404.64 1937.72 1410.29 1950.12L1412.16 1954.21H1416.66H1464.52H1467.42L1469.47 1952.16L2018.57 1403.05L2018.91 1402.72H2258.74H2261.64L2263.69 1400.67L2918.71 745.487L2919.31 744.93H3079.63H3082.54L3084.59 742.877L3319.74 507.503L3320.91 510.871L3084.24 747.454L3084.16 747.527L3083.72 747.937H2923.7Z" stroke="#46FF09" stroke-width="14"/>
<path d="M457.621 1277.69L457.63 1277.7L507.557 1327.34L507.572 1327.35L509.232 1329.01V1713.68L507.558 1715.36L511.957 1719.76L507.557 1715.36L479.079 1743.84L477.029 1745.89V1748.78V1749.08V1750.55L477.616 1751.89C479.358 1755.87 480.311 1760.15 480.311 1764.73C480.311 1782.98 464.967 1798.14 445.566 1798.14C426.158 1798.14 410.821 1782.98 410.821 1764.73C410.821 1746.48 426.156 1731.33 445.566 1731.33C451.996 1731.33 457.936 1733.15 463.229 1736.21L467.896 1738.9L471.696 1735.08L495.702 1710.93L497.738 1708.88V1705.99V1336.84V1333.94L495.688 1331.89L453.347 1289.55L451.297 1287.5H448.398H383.097H380.198L378.148 1289.55L-23.5084 1691.2L-25.5587 1693.25V1696.15V2666.44V2669.34L-23.5085 2671.39L233.525 2928.42L233.623 2928.52L233.724 2928.61L235.505 2930.26V3118.7L233.719 3120.36L233.589 3120.48L233.466 3120.61L221.246 3133.12L215.301 3139.21L222.423 3143.87C231.679 3149.93 237.589 3159.98 237.589 3171.42C237.589 3189.67 222.254 3204.82 202.844 3204.82C183.441 3204.82 168.099 3189.67 168.099 3171.42C168.099 3154.88 180.619 3141.01 197.456 3138.53L199.73 3138.19L201.363 3136.57L221.941 3116.15L224.011 3114.1V3111.18V2937.78V2934.88L221.957 2932.83L-35.3746 2675.95L-35.3755 2675.95L-37.0527 2674.28L-37.0449 1688.47L-35.3693 1686.79L-35.3649 1686.79L373.582 1277.69L373.583 1277.69L375.257 1276.01H455.937L457.621 1277.69Z" stroke="#46FF09" stroke-width="14"/>
<path d="M1239.73 3202.13C1221.5 3202.13 1206.7 3188.8 1204.95 3172.17L1204.96 3172.17C1204.94 3171.96 1204.92 3171.63 1204.94 3171.02C1204.94 3170.9 1204.95 3170.74 1204.96 3170.55C1204.97 3170.03 1205 3169.32 1205 3168.74C1205 3156.23 1212.18 3145.33 1223.03 3139.59L1226.76 3137.62V3133.4V2907.9L1228.44 2906.22L1228.44 2906.22L1410.77 2723.87L1412.82 2721.82V2718.92V2124.94V2122.04L1410.77 2119.99L1290.16 1999.38L1286.79 1996L1282.41 1997.91C1277.89 1999.89 1273.13 2001.06 1268.21 2001.06C1248.48 2001.06 1232.43 1984.84 1232.43 1964.97C1232.43 1949.17 1242.76 1935.94 1257.13 1931.22L1258.72 1930.7L1259.9 1929.52L1834.64 1354.63L1834.64 1354.62L1836.32 1352.94H2168.57H2171.47L2173.52 1350.9L2481.4 1043.17L2483.45 1041.12V1038.22V844.382L2484.97 842.79L2485.07 842.689L2672.98 654.935L2672.98 654.933L2674.65 653.258H2767.7L2769.37 654.933L2769.39 654.946L2769.4 654.959L2798.03 683.285L2800.08 685.309H2802.96H3019.57H3022.47L3024.52 683.26L3289.02 418.888L3293.23 431.02L3029.2 695.179L3029.09 695.283L3027.5 696.811H2795.18L2793.59 695.281L2793.48 695.179L2765.11 666.811L2763.06 664.76H2760.17H2682.34H2679.44L2677.39 666.81L2496.98 847.209L2494.93 849.259V852.159V1045.84L2493.26 1047.58L2493.17 1047.68L2178.19 1362.81L2178.14 1362.86L2176.49 1364.44H1844.14H1841.25L1839.2 1366.49L1283.38 1922.29L1276.7 1928.98L1285.04 1933.42C1296.43 1939.48 1304.15 1951.33 1304.15 1964.97C1304.15 1971.89 1302.13 1978.36 1298.65 1983.91L1295.7 1988.63L1299.63 1992.57L1422.63 2115.87L1422.63 2115.87L1424.31 2117.55V2726.75L1422.63 2728.43L1422.63 2728.43L1240.3 2910.77L1238.25 2912.82V2915.72V3128.77V3134.92L1244.36 3135.71C1261.53 3137.92 1274.48 3151.99 1274.48 3168.72C1274.48 3186.97 1259.13 3202.13 1239.73 3202.13Z" stroke="#46FF09" stroke-width="14"/>
<path d="M200.854 1078.38L195.088 1079.41V1085.27V1229.22L193.414 1230.89L198.364 1235.84L193.414 1230.89L-187.808 1612.13L-189.859 1614.18V1617.08V2754.5V2757.4L-187.808 2759.45L32.8464 2980.1L36.0243 2983.28L40.2366 2981.71C44.4071 2980.16 48.5293 2979.18 52.7033 2979.18C72.1136 2979.18 87.4481 2994.33 87.4481 3012.58C87.4481 3030.83 72.1135 3045.98 52.7033 3045.98C33.3002 3045.98 17.9585 3030.83 17.9585 3012.58C17.9585 3006.21 20.0434 3000.25 23.5235 2994.94L26.6434 2990.18L22.6162 2986.15L-199.67 2764.01L-199.672 2764.01L-201.353 2762.33V1609.24L-199.679 1607.56L-199.673 1607.55L181.543 1226.48L183.594 1224.43V1221.53V1081.98V1077.49L179.502 1075.62C167.499 1070.14 159.291 1058.66 159.291 1045.61C159.291 1027.37 174.858 1012.2 194.333 1012.2C213.75 1012.2 229.078 1027.31 229.078 1045.61C229.078 1061.79 217.122 1075.46 200.854 1078.38Z" stroke="#46FF09" stroke-width="14"/>
<path d="M1103.86 2776.6L922.413 2595.3L921.938 2594.77V1369.9L922.277 1369.54L922.352 1369.46L922.425 1369.37L947.919 1340.45L948.033 1340.32L948.14 1340.19L948.419 1339.84H1098.61H1101.22L1103.19 1338.13L1125.26 1319.05L1127.68 1316.96V1313.76V1227.88V1224.99L1125.64 1222.94L1101.78 1198.94L1099.73 1196.87H1096.82H939.958L939.418 1196.39L644.071 900.742L643.921 900.592L643.762 900.451L643.432 900.159V599.309V596.407L641.379 594.356L397.169 350.444L395.119 348.397H392.222H180.071H177.171L175.121 350.447L107.573 417.995L107.034 418.475H-1843.25H-1846.15L-1848.2 420.529L-1950.82 523.283L-1948.6 516.88L-1847.8 416.073L-1847.65 415.924L-1847.51 415.766L-1847.22 415.436H103.001H105.909L107.961 413.375L175.488 345.551L175.498 345.541L175.818 345.221H396.727L397.267 345.7L645.959 594.552L646.439 595.091V896.124V899.025L648.491 901.075L939.361 1191.8L941.411 1193.85H944.31H1100.84L1101.13 1194.18L1101.28 1194.34L1101.43 1194.49L1130.34 1223.25L1130.36 1223.27L1130.68 1223.59V1318.05L1130.24 1318.45L1130.18 1318.5L1102.8 1342.45L1102.79 1342.46L1102.39 1342.81H952.958H949.794L947.704 1345.18L926.835 1368.89L925.089 1370.87V1373.51V2590.57V2593.47L927.139 2595.52L1108.28 2776.66L1108.91 2777.29V2871L1108.57 2871.3L1108.42 2871.43L1108.28 2871.57L984.234 2995.62L981.359 2998.49L982.432 3002.41C983.212 3005.26 983.672 3008.15 983.672 3011C983.672 3029.28 968.447 3044.41 949.08 3044.41C929.671 3044.41 914.335 3029.25 914.335 3011C914.335 2992.75 929.67 2977.6 949.08 2977.6C959.863 2977.6 969.365 2982.21 975.703 2989.5L980.631 2995.17L985.939 2989.86L1103.87 2871.77L1105.92 2869.72V2866.83V2781.55V2778.65L1103.86 2776.6Z" stroke="#46FF09" stroke-width="14"/>
<path d="M2876.36 614.562L2875.42 608.672H2869.45H2663.25H2660.36L2658.31 610.717L2450.93 817.655L2448.87 819.706V822.61V1022.48L2447.2 1024.16L2447.19 1024.16L2160.94 1310.41L2159.26 1312.08H1804.2H1801.3L1799.25 1314.13L1205.26 1908.42L1203.21 1910.47V1913.37V2050.23V2053.12L1205.26 2055.17L1376.42 2226.63L1376.52 2226.73L1376.62 2226.82L1378.4 2228.47V2582.71L1376.62 2584.35L1376.51 2584.45L1376.42 2584.55L1281.29 2679.97L1277.28 2683.99L1280.4 2688.74C1283.8 2693.95 1285.81 2700.04 1285.81 2706.53C1285.81 2724.81 1270.58 2739.93 1251.22 2739.93C1231.81 2739.93 1216.47 2724.78 1216.47 2706.53C1216.47 2688.28 1231.81 2673.12 1251.22 2673.12C1255.65 2673.12 1259.78 2673.98 1263.8 2675.5L1268.02 2677.1L1271.22 2673.91L1364.85 2580.43L1366.9 2578.38V2575.47V2235.84V2232.94L1364.85 2230.89L1193.39 2059.74L1193.39 2059.73L1191.72 2058.07V1905.66L1795.13 1302.26L1795.13 1302.26L1796.81 1300.58H2151.57H2154.47L2156.52 1298.53L2435.33 1019.73L2437.38 1017.68V1014.78V814.915L2439.05 813.242L2439.05 813.24L2653.64 598.802L2653.74 598.701L2655.33 597.178H2873.47H2877.82L2879.75 593.276C2885.7 581.214 2897.91 572.874 2911.94 572.874C2931.68 572.874 2947.73 589.09 2947.73 608.962C2947.73 628.765 2931.74 644.753 2911.94 644.753C2894.05 644.753 2879.1 631.638 2876.36 614.562ZM1188.56 2064.58L1188.45 2064.69L1188.56 2064.58Z" stroke="#46FF09" stroke-width="14"/>
<path d="M-1390.98 324.56L-1396.55 329.494L-1391.28 334.751L-1385.17 340.857L-1383.12 342.904H-1380.22H59.0361H61.9353L63.9856 340.854L133.614 271.234L133.275 270.894L133.614 271.233L133.953 270.894H424.246L718.328 564.977V859.818V862.716L720.377 864.766L969.205 1113.75L971.255 1115.8H974.156H1135.01L1135.3 1116.13L1135.44 1116.29L1135.59 1116.44L1198.51 1179.06L1198.51 1179.06L1198.84 1179.39V1394.24L1198.5 1394.57L1198.5 1394.57L995.298 1597.63L993.246 1599.68V1602.58V2452.85V2455.76L995.303 2457.81L1100.56 2562.77L1103.16 2565.36L1106.76 2564.7C1109.28 2564.24 1111.38 2563.92 1113.4 2563.92C1132.88 2563.92 1148.45 2579.14 1148.45 2597.32C1148.45 2615.51 1132.88 2630.73 1113.4 2630.73C1094 2630.73 1078.66 2615.58 1078.66 2597.32C1078.66 2586.57 1084 2577.11 1092.48 2570.93L1099.08 2566.12L1093.32 2560.33L990.596 2457.16L990.587 2457.15L990.578 2457.14L990.247 2456.81V1598.65L990.577 1598.32L990.583 1598.31L990.588 1598.31L1193.79 1394.94L1195.84 1392.89V1389.99V1183.81V1180.91L1193.8 1178.87L1135.95 1120.87L1133.9 1118.81H1130.99H970.2L969.871 1118.48L969.861 1118.47L715.965 864.722L715.329 864.086V568.956V566.054L713.277 564.003L424.932 275.957L422.883 273.909H419.985H138.358H135.459L133.408 275.96L63.8616 345.514L63.4243 345.927H-1384.65L-1385.19 345.446L-1396.68 333.961L-1399.7 330.946L-1403.76 332.245C-1407.26 333.362 -1410.87 333.996 -1414.6 333.996C-1433.54 333.996 -1449.07 319.073 -1450.31 300.325L-1450.31 297.894C-1450.3 278.038 -1434.32 262.101 -1414.52 262.101C-1394.67 262.101 -1378.58 278.071 -1378.58 297.892C-1378.58 308.429 -1383.37 317.814 -1390.98 324.56Z" stroke="#46FF09" stroke-width="14"/>
<mask id="path-26-inside-2_10_2" fill="white">
<path d="M1272.98 1492.18C1296.67 1492.18 1316.07 1511.59 1316.06 1535.27C1316.07 1558.96 1296.67 1578.06 1272.98 1578.06C1265.41 1578.06 1258.42 1575.83 1252.26 1572.4L1148.34 1676.32V2206.62L1338.58 2397.16L1342.6 2400.89V2532.09L1338.58 2535.82L1290.72 2583.98C1292.11 2587.99 1292.81 2592.17 1292.81 2596.65C1292.81 2618.98 1274.26 2637.05 1251.21 2637.05C1228.16 2637.05 1209.47 2618.98 1209.47 2596.65C1209.47 2574.32 1228.16 2556.25 1251.21 2556.24C1260.08 2556.25 1268.32 2559 1275.07 2563.55L1317.11 2521.5V2411.48L1126.57 2220.94L1122.84 2217.21V1665.73L1126.57 1662L1234.67 1553.76C1231.93 1548.12 1230.19 1541.98 1230.19 1535.27C1230.19 1511.59 1249.29 1492.18 1272.98 1492.18Z"/>
</mask>
<path d="M1316.06 1535.27L1302.06 1535.27L1302.06 1535.28L1316.06 1535.27ZM1252.26 1572.4L1259.08 1560.17L1249.84 1555.02L1242.36 1562.5L1252.26 1572.4ZM1148.34 1676.32L1138.44 1666.42L1134.34 1670.52V1676.32H1148.34ZM1148.34 2206.62H1134.34V2212.42L1138.43 2216.52L1148.34 2206.62ZM1338.58 2397.16L1328.67 2407.05L1328.86 2407.24L1329.06 2407.42L1338.58 2397.16ZM1342.6 2400.89H1356.6V2394.78L1352.13 2390.63L1342.6 2400.89ZM1342.6 2532.09L1352.13 2542.35L1356.6 2538.19V2532.09H1342.6ZM1338.58 2535.82L1329.06 2525.56L1328.85 2525.75L1328.65 2525.95L1338.58 2535.82ZM1290.72 2583.98L1280.79 2574.11L1274.64 2580.29L1277.49 2588.54L1290.72 2583.98ZM1251.21 2556.24L1251.23 2542.24L1251.22 2542.24L1251.21 2542.24L1251.21 2556.24ZM1275.07 2563.55L1267.24 2575.16L1276.81 2581.61L1284.97 2573.45L1275.07 2563.55ZM1317.11 2521.5L1327.01 2531.4L1331.11 2527.3V2521.5H1317.11ZM1317.11 2411.48H1331.11V2405.68L1327.01 2401.58L1317.11 2411.48ZM1126.57 2220.94L1136.47 2211.04L1136.47 2211.03L1136.46 2211.03L1126.57 2220.94ZM1122.84 2217.21H1108.84V2223.02L1112.95 2227.12L1122.84 2217.21ZM1122.84 1665.73L1112.95 1655.82L1108.84 1659.92V1665.73H1122.84ZM1126.57 1662L1136.46 1671.91L1136.47 1671.9L1136.48 1671.9L1126.57 1662ZM1234.67 1553.76L1244.57 1563.65L1251.61 1556.61L1247.26 1547.65L1234.67 1553.76ZM1272.98 1506.18C1288.94 1506.18 1302.07 1519.32 1302.06 1535.27L1330.06 1535.28C1330.07 1503.86 1304.4 1478.18 1272.98 1478.18V1506.18ZM1302.06 1535.28C1302.07 1551.1 1289.06 1564.06 1272.98 1564.06V1592.06C1304.27 1592.06 1330.07 1566.82 1330.06 1535.27L1302.06 1535.28ZM1272.98 1564.06C1268.22 1564.06 1263.56 1562.67 1259.08 1560.17L1245.44 1584.63C1253.28 1589 1262.59 1592.06 1272.98 1592.06V1564.06ZM1242.36 1562.5L1138.44 1666.42L1158.24 1686.21L1262.16 1582.3L1242.36 1562.5ZM1134.34 1676.32V2206.62H1162.34V1676.32H1134.34ZM1138.43 2216.52L1328.67 2407.05L1348.49 2387.27L1158.24 2196.73L1138.43 2216.52ZM1329.06 2407.42L1333.08 2411.15L1352.13 2390.63L1348.1 2386.9L1329.06 2407.42ZM1328.6 2400.89V2532.09H1356.6V2400.89H1328.6ZM1333.08 2521.83L1329.06 2525.56L1348.1 2546.08L1352.13 2542.35L1333.08 2521.83ZM1328.65 2525.95L1280.79 2574.11L1300.65 2593.85L1348.51 2545.69L1328.65 2525.95ZM1277.49 2588.54C1278.35 2591.04 1278.81 2593.68 1278.81 2596.65H1306.81C1306.81 2590.67 1305.86 2584.94 1303.96 2579.41L1277.49 2588.54ZM1278.81 2596.65C1278.81 2610.88 1266.9 2623.05 1251.21 2623.05V2651.05C1281.62 2651.05 1306.81 2627.08 1306.81 2596.65H1278.81ZM1251.21 2623.05C1235.45 2623.05 1223.47 2610.82 1223.47 2596.65H1195.47C1195.47 2627.14 1220.87 2651.05 1251.21 2651.05V2623.05ZM1223.47 2596.65C1223.47 2582.48 1235.45 2570.24 1251.22 2570.24L1251.21 2542.24C1220.86 2542.25 1195.47 2566.15 1195.47 2596.65H1223.47ZM1251.2 2570.24C1257.15 2570.24 1262.69 2572.09 1267.24 2575.16L1282.9 2551.95C1273.95 2545.91 1263.01 2542.25 1251.23 2542.24L1251.2 2570.24ZM1284.97 2573.45L1327.01 2531.4L1307.21 2511.6L1265.17 2553.65L1284.97 2573.45ZM1331.11 2521.5V2411.48H1303.11V2521.5H1331.11ZM1327.01 2401.58L1136.47 2211.04L1116.67 2230.84L1307.21 2421.38L1327.01 2401.58ZM1136.46 2211.03L1132.73 2207.3L1112.95 2227.12L1116.69 2230.85L1136.46 2211.03ZM1136.84 2217.21V1665.73H1108.84V2217.21H1136.84ZM1132.73 1675.64L1136.46 1671.91L1116.69 1652.09L1112.95 1655.82L1132.73 1675.64ZM1136.48 1671.9L1244.57 1563.65L1224.76 1543.87L1116.67 1652.11L1136.48 1671.9ZM1247.26 1547.65C1245.26 1543.53 1244.19 1539.48 1244.19 1535.27H1216.19C1216.19 1544.49 1218.6 1552.71 1222.07 1559.87L1247.26 1547.65ZM1244.19 1535.27C1244.19 1519.19 1257.15 1506.18 1272.98 1506.18V1478.18C1241.43 1478.18 1216.19 1503.98 1216.19 1535.27H1244.19Z" fill="#46FF09" mask="url(#path-26-inside-2_10_2)"/>
<path d="M451.905 727.58L450.316 731.802L453.505 734.993L462.524 744.02L462.936 744.458V972.767V975.667L464.987 977.717L705.158 1217.9L705.166 1217.9L705.497 1218.24V1915.7L705.167 1916.03L372.688 2248.51L370.638 2250.56V2253.46V2432.36L370.308 2432.65L370.146 2432.8L369.992 2432.95L324.523 2478.73L319.876 2483.4L324.268 2488.32C329.62 2494.32 332.923 2501.77 332.923 2509.89C332.923 2528.14 317.58 2543.3 298.178 2543.3C278.773 2543.3 263.438 2528.15 263.434 2509.9C263.438 2491.65 278.78 2476.5 298.178 2476.5C303.459 2476.5 308.467 2477.62 312.903 2479.62L317.308 2481.6L320.722 2478.18L365.605 2433.3L367.655 2431.25V2428.35V2249.27L368.13 2248.74L700.454 1916.71L702.507 1914.66V1911.76V1222.2V1219.3L700.455 1217.25L460.42 977.357L460.348 977.285L460.274 977.216L459.938 976.899V748.685V745.632L457.699 743.554L453.677 739.822L448.792 735.289L444.024 739.945C437.746 746.076 429.047 749.883 419.391 749.883C400.056 749.883 384.646 734.501 384.646 716.176C384.646 697.934 399.988 682.775 419.391 682.775C438.8 682.775 454.135 697.933 454.135 716.176C454.135 720.067 453.315 723.835 451.905 727.58Z" stroke="#46FF09" stroke-width="14"/>
<path d="M328.423 604.037L324.461 608.935L328.916 613.389L350.388 634.861L352.438 636.911H355.337H453.522L502.051 685.44V958.061V960.958L504.098 963.008L737.721 1196.94L737.724 1196.95L738.055 1197.28V2077.62L737.58 2078.15L422.247 2393.19L420.194 2395.24V2398.14V2458.67V2464.94L426.424 2465.63C443.903 2467.56 457.024 2481.67 457.024 2498.63C457.024 2516.91 441.801 2532.03 422.423 2532.03C403.013 2532.03 387.679 2516.88 387.679 2498.63C387.679 2483.75 397.864 2470.97 412.185 2466.73L417.195 2465.24V2460.01V2394.09L417.68 2393.55L733.006 2078.22L735.056 2076.17V2073.27V1201.39V1198.49L733.004 1196.44L499.463 963.031L499.052 962.594V689.701V686.801L497.002 684.751L454.219 641.961L452.169 639.91H449.269H351.078L350.756 639.59L325.578 614.114L321.954 610.447L317.377 612.82C312.242 615.483 306.952 617.103 301.22 617.103C283.054 617.103 268.189 603.54 266.436 586.84L266.435 586.83C266.413 586.617 266.402 586.29 266.418 585.676C266.421 585.557 266.426 585.397 266.433 585.209C266.45 584.695 266.475 583.983 266.475 583.396C266.475 565.145 281.809 549.994 301.22 549.994C320.623 549.994 335.964 565.146 335.964 583.396C335.964 591.019 333.079 598.281 328.423 604.037Z" stroke="#46FF09" stroke-width="14"/>
<path d="M445.914 232.535L445.913 232.536L445.914 232.535ZM440.683 237.186L440.82 237.34L440.965 237.486L748.4 544.772L748.537 544.912L749.02 545.427V837.099V839.954L751.017 841.994L988.997 1085.19L991.056 1087.29H994H1154.15L1154.47 1087.63L1154.54 1087.71L1154.62 1087.79L1232.15 1165.02L1232.65 1165.59L1234.99 1427.74L1234.67 1428.05L1234.65 1428.07L1234.64 1428.09L1037.27 1628.49L1035.26 1630.54V1633.4V2383.93V2386.82L1037.3 2388.87L1109.31 2461.17L1113.59 2465.46L1118.45 2461.85C1124.38 2457.45 1131.69 2454.74 1139.62 2454.74C1159.03 2454.74 1174.36 2469.89 1174.36 2488.14C1174.36 2506.39 1159.03 2521.54 1139.62 2521.54C1120.21 2521.54 1104.87 2506.39 1104.87 2488.14C1104.87 2482.62 1106.55 2477.45 1109.34 2472.49L1111.94 2467.86L1108.18 2464.1L1032.6 2388.66L1032.59 2388.66L1032.27 2388.33V1629.14L1032.6 1628.8L1032.62 1628.78L1032.64 1628.76L1230 1428.22L1232.04 1426.15L1232.01 1423.25L1229.62 1169.69L1229.6 1166.83L1227.57 1164.81L1154.96 1092.35L1152.91 1090.31H1150.02H989.927L746.396 841.598L746.37 841.571L746.344 841.545L746.013 841.214V549.656V546.757L743.963 544.707L441.307 241.914L439.257 239.863H436.356H120.137H117.237L115.187 241.913L54.8024 302.29L54.7948 302.297L54.1672 302.927H-1316.73L-1317.36 302.297L-1317.37 302.29L-1371.34 248.325L-1373.39 246.275H-1376.29H-1787.18H-1790.08L-1792.13 248.325L-1889.12 345.306L-1886.81 338.654L-1791.43 243.26H-1372.05L-1371.62 243.665L-1317.72 297.856L-1315.67 299.92H-1312.76H49.9371H52.8317L54.881 297.875L115.411 237.491L115.563 237.339L115.706 237.177L115.998 236.848H440.382L440.683 237.186Z" stroke="#46FF09" stroke-width="14"/>
<path d="M-1366.41 202.144L-1366.4 202.153L-1297.52 271.033L-1295.47 273.083H-1292.57H24.0822H26.9911L29.0432 271.021L94.0472 205.72L94.5779 205.249H453.402L453.729 205.576L453.733 205.58L777.857 530.155L778.004 530.302L778.16 530.44L778.489 530.733V813.842V816.743L780.541 818.793L1011.33 1049.43L1013.38 1051.48H1016.28H1171.71L1172.04 1051.81L1262.69 1142.46L1263.03 1142.8V1443.61L1262.55 1444.16L1062.32 1644.38L1060.27 1646.43V1649.33V2285.66V2288.56L1062.32 2290.61L1224.68 2452.67L1229.01 2456.99L1233.87 2453.28C1239.85 2448.71 1247.14 2445.91 1255.12 2445.91C1274.45 2445.91 1289.86 2461.3 1289.86 2479.62C1289.86 2497.87 1274.52 2513.02 1255.12 2513.02C1235.71 2513.02 1220.37 2497.87 1220.37 2479.62C1220.37 2474.13 1221.91 2469.07 1224.58 2464.2L1227.1 2459.6L1223.39 2455.89L1057.75 2290.1L1057.26 2289.55V1645.14L1057.75 1644.6L1257.97 1444.67L1260.02 1442.62V1439.72V1146.75V1143.86L1257.97 1141.81L1172.7 1056.53L1170.65 1054.48H1167.75H1012.12L1011.82 1054.15L1011.68 1053.99L1011.53 1053.84L775.969 818.574L775.49 818.036V534.75V531.85L773.44 529.8L453.946 210.306L451.896 208.255H448.996H99.0845H96.1946L94.1464 210.294L28.3955 275.739L28.3855 275.749L28.3756 275.759L28.0461 276.09H-1296.6L-1296.93 275.759L-1296.94 275.756L-1365.67 206.883L-1367.72 204.828H-1370.63H-1814.76H-1817.66L-1819.71 206.879L-1852.5 239.667L-1850.15 232.896L-1819.56 202.293L-1819.03 201.813H-1366.74L-1366.41 202.144Z" stroke="#46FF09" stroke-width="14"/>
<path d="M573.408 916.59V919.487L575.456 921.537L819.513 1165.89L819.587 1165.97L819.664 1166.04L820 1166.36V2195L819.664 2195.32L819.587 2195.39L819.513 2195.47L695.622 2319.5L693.575 2321.55V2324.45V2390.73L693.258 2391.05L693.244 2391.06L677.007 2407.15L674.935 2409.21V2412.12V2438.51V2443.63L679.811 2445.18C693.808 2449.64 703.711 2462.21 703.711 2476.83C703.711 2495.08 688.377 2510.23 668.966 2510.23C649.556 2510.23 634.221 2495.08 634.221 2476.83C634.221 2459.62 647.795 2445.18 665.584 2443.54L671.944 2442.96V2436.57V2408.16L672.275 2407.83L671.944 2407.5V2407.5L672.276 2407.83L688.527 2391.57L690.576 2389.52V2386.62V2320.2L691.212 2319.56L691.216 2319.56L814.962 2195.66L817.009 2193.61V2190.71V1170.49V1167.59L814.959 1165.54L570.741 921.326L570.409 920.995V620.338V617.441L568.363 615.392L370.073 416.804L368.022 414.75H365.12H210.216H207.316L205.266 416.801L140.118 481.956L139.977 482.097L139.844 482.246L139.542 482.584H-1804.48H-1807.38L-1809.43 484.64L-1940.1 615.608L-1940.54 616.017H-1982.97L-1981.94 613.042H-1945.06H-1942.17L-1940.12 610.997L-1808.77 479.938L-1808.76 479.933L-1808.43 479.602H135.527H138.431L140.482 477.546L205.629 412.25L205.79 412.093L206.142 411.767H369.209L369.568 412.1L369.723 412.25L572.925 615.312L573.408 615.856V916.59Z" stroke="#46FF09" stroke-width="14"/>
<path d="M3109.16 821.729L3109.1 821.789L3109.04 821.85L3105 826.093H2931.17H2928.27L2926.22 828.143L2357.73 1396.63L2355.68 1398.68V1401.58V1736.01L2351.56 1740.34L1794.62 2296.99L1792.57 2299.04V2301.94V2332.5V2337.51L1797.31 2339.13C1811.42 2343.94 1821.49 2357.18 1821.49 2372.9C1821.49 2392.71 1805.51 2408.7 1785.71 2408.7C1767.05 2408.7 1751.72 2394.81 1749.88 2376.84C1749.83 2376.27 1749.84 2375.84 1749.87 2375.18C1749.89 2374.64 1749.92 2373.95 1749.92 2372.9C1749.92 2362.45 1754.52 2353.08 1761.79 2346.47L1764.08 2344.38V2341.29V2287.29L1768.15 2283.03L1768.26 2282.91L2325.15 1725.88L2327.2 1723.83V1720.93V1386.58L2331.26 1382.52L2912.2 801.578L2916.53 797.455H3090.09H3092.99L3095.04 795.405L3336.04 554.5C3336.07 554.592 3336.1 554.683 3336.13 554.773C3337.71 559.329 3338.18 560.676 3346.47 584.593L3109.16 821.729Z" stroke="#46FF09" stroke-width="14"/>
<path d="M223.188 535.254L217.818 536.54V542.061V619.455L216.237 621.103L30.677 806.663L28.6268 808.713V811.613V1273.73L26.9521 1275.41L26.9498 1275.41L-278.096 1580.74L-280.144 1582.79V1585.69V1632.5V1639.04L-273.623 1639.49C-255.41 1640.74 -241.375 1655.42 -241.375 1672.91C-241.375 1691.16 -256.717 1706.31 -276.12 1706.31C-295.53 1706.31 -310.865 1691.16 -310.865 1672.91V1672.19C-310.61 1660.76 -304.36 1650.5 -294.91 1644.55L-291.638 1642.49V1638.63V1578.01L-289.963 1576.34L-294.913 1571.39L-289.963 1576.34L15.0742 1271.29L17.1244 1269.24V1266.34V803.943L18.9059 802.297L19.0092 802.201L19.1087 802.102L204.277 616.636L206.324 614.586V611.69V540.42V535.626L201.853 533.893C189.029 528.923 180.379 516.992 180.379 502.995C180.379 484.746 195.721 469.594 215.124 469.594C234.502 469.594 249.724 484.714 249.724 502.995C249.724 518.428 238.553 531.574 223.188 535.254Z" stroke="#46FF09" stroke-width="14"/>
<path d="M2044.56 1571.13C2064.4 1571.13 2080.64 1587.29 2080.64 1607.07C2080.64 1626.82 2064.43 1642.86 2044.56 1642.85L2044.55 1642.85C2024.75 1642.86 2008.77 1626.88 2008.77 1607.07C2008.77 1587.23 2024.79 1571.13 2044.56 1571.13Z" stroke="#46FF09" stroke-width="14"/>
<path d="M2206.92 1464.81C2243.73 1464.81 2273.41 1494.49 2273.41 1531.3C2273.41 1568.14 2243.71 1597.95 2206.92 1597.95C2170.1 1597.95 2140.27 1568.12 2140.27 1531.3C2140.27 1494.51 2170.08 1464.81 2206.92 1464.81Z" stroke="#46FF09" stroke-width="14"/>
<path d="M2759.87 507.094L2758.18 502.52H2753.3H2654.91H2652L2649.95 504.572L2381.88 772.788L2379.83 774.838V777.736V987.938L2375.6 991.984L2375.54 992.04L2375.48 992.098L2133.11 1234.46L2133.06 1234.51L2128.74 1238.73H1711.46H1708.56L1706.51 1240.78L1428.75 1518.83L1425.87 1521.71L1426.95 1525.63C1427.82 1528.78 1428.34 1532.07 1428.34 1535.26C1428.34 1555.08 1412.38 1571.05 1392.55 1571.05C1372.67 1571.05 1356.47 1555.02 1356.47 1535.26V1534.19C1357.05 1514.86 1373.09 1499.19 1392.54 1499.19C1395.94 1499.19 1399.11 1499.53 1401.91 1500.28L1405.82 1501.33L1408.68 1498.47L1692.7 1214.31L1692.7 1214.31L1696.76 1210.25H2114.15H2117.05L2119.1 1208.2L2349.3 977.999L2351.35 975.949V973.05V763.042L2355.41 758.978L2636.3 478.091L2640.36 474.027H2761.06H2764.28L2766.38 471.575C2772.99 463.841 2782.55 458.967 2793.41 458.967C2813.21 458.967 2829.2 474.947 2829.2 494.758C2829.2 514.592 2813.18 530.693 2793.41 530.693C2778.01 530.693 2764.97 520.891 2759.87 507.094Z" stroke="#46FF09" stroke-width="14"/>
<path d="M410.855 1494.43C430.267 1494.43 445.607 1509.58 445.607 1527.83C445.607 1546.08 430.267 1561.23 410.855 1561.23C392.593 1561.23 377.823 1548.02 376.075 1531.43C376.026 1530.94 376.039 1530.61 376.063 1530.06C376.084 1529.58 376.112 1528.92 376.112 1527.83C376.112 1509.58 391.453 1494.43 410.855 1494.43Z" stroke="#46FF09" stroke-width="14"/>
<path d="M1052.33 1399.19C1072.21 1399.19 1088.41 1415.22 1088.41 1434.97C1088.41 1454.76 1072.17 1470.91 1052.33 1470.91C1032.53 1470.91 1016.54 1454.83 1016.54 1434.97C1016.54 1415.15 1032.5 1399.19 1052.33 1399.19Z" stroke="#46FF09" stroke-width="14"/>
<path d="M3145.13 274.077L3143.08 276.126V279.023V423.923L3142.75 424.215L3142.6 424.352L3142.45 424.498L3089.53 477.28L3089.38 477.429L3089.24 477.586L3088.94 477.924H2904.69L2904.39 477.586L2904.25 477.429L2904.1 477.282L2840.74 414.065L2838.69 412.02H2835.8H2659.42H2656.52L2654.47 414.071L2293.22 775.317L2291.17 777.368V780.267V950.675L2290.83 950.976L2290.69 951.109L2290.54 951.251L2080.62 1161.17L2080.28 1161.5H1357.69L1357.14 1161.02L1220.12 1024L1218.07 1021.95H1215.17H1033.7L1033.16 1021.47L858.212 846.519L857.804 846.085V678.154V672.975L852.852 671.46C838.187 666.972 827.539 653.219 827.539 637.004V636.972C827.539 617.154 843.512 601.181 863.33 601.181C883.218 601.181 899.418 617.216 899.418 636.972C899.418 655.544 885.209 670.941 867.088 672.799L860.803 673.444V679.763V841.521V844.42L862.853 846.471L1033.26 1016.88L1035.31 1018.94H1038.21H1219.44L1219.77 1019.27L1219.78 1019.27L1356.94 1156.43L1358.99 1158.48H1361.89H2076.33H2079.23L2081.28 1156.43L2286.13 951.585L2288.18 949.535V946.635V776.137L2288.51 775.805L2288.52 775.796L2654.83 409.635L2654.9 409.566L2654.96 409.495L2655.43 409.005H2839.9L2840.53 409.634L2841.16 409.005L2840.53 409.634L2903.75 472.851L2905.8 474.901H2908.7H3084.92H3087.83L3089.88 472.843L3137.89 424.687L3139.93 422.638V419.744V274.654L3140.41 274.12L3213.34 201.27L3214.5 204.619L3145.13 274.077Z" stroke="#46FF09" stroke-width="14"/>
<path d="M1555.65 1033.85C1575.4 1033.85 1591.44 1050.07 1591.44 1069.94C1591.44 1089.74 1575.47 1105.72 1555.65 1105.72C1535.85 1105.72 1519.87 1089.74 1519.87 1069.94C1519.87 1050.07 1535.92 1033.85 1555.65 1033.85Z" stroke="#46FF09" stroke-width="14"/>
<path d="M1766.21 1027.23C1786.01 1027.23 1801.99 1043.22 1801.99 1063.02C1801.99 1082.88 1786.01 1098.81 1766.21 1098.8L1766.2 1098.8C1746.33 1098.81 1730.12 1082.81 1730.12 1063.02C1730.12 1043.28 1746.34 1027.23 1766.21 1027.23Z" stroke="#46FF09" stroke-width="14"/>
<path d="M3093.34 246.224L3091.29 248.274V251.174V351.153L3030.13 412.319L3029.99 412.46L3029.86 412.609L3029.56 412.947H2911.4L2910.77 412.324L2910.76 412.311L2845.77 347.169L2843.72 345.113H2840.81H2619.41H2616.51L2614.46 347.163L2236.22 725.409L2234.17 727.459V730.359V928.941L2233.84 929.234L2233.68 929.37L2233.54 929.515L2113.67 1049.38L2113.33 1049.72H1872.84L1798.55 975.436L1796.5 973.385H1793.6H1248.8L1248.26 972.907L1123.18 847.678L1121.13 845.625H1118.22H1025.04H1020.18L1018.48 850.172C1013.37 863.843 1000.39 873.5 985.08 873.5C965.263 873.5 949 857.239 949 837.412V836.623C949.412 817.223 965.454 801.605 985.08 801.605C1004.34 801.605 1020.04 816.835 1020.88 835.908L1021.17 842.602H1027.87H1122.26L1122.8 843.079L1247.74 968.322L1249.79 970.379H1252.69H1797.6L1797.89 970.709L1798.03 970.866L1798.18 971.015L1871.83 1044.67L1873.88 1046.72H1876.78H2109.37H2112.27L2114.32 1044.67L2229.12 929.866L2231.17 927.816V924.916V726.123L2231.58 725.687L2614.52 342.582L2615.06 342.106H2845.07L2845.39 342.431L2845.4 342.437L2910.69 407.885L2912.74 409.941H2915.65H3025.38H3028.28L3030.33 407.89L3086.24 351.978L3088.29 349.928V347.029V247.02L3088.78 246.557L3088.85 246.489L3088.92 246.419L3193.09 142.155C3193.32 142.823 3193.49 143.301 3193.67 143.829C3193.82 144.263 3193.98 144.732 3194.2 145.368L3093.34 246.224Z" stroke="#46FF09" stroke-width="14"/>
<path d="M352.968 979.606L352.966 979.595C352.944 979.383 352.933 979.057 352.949 978.445C352.952 978.327 352.958 978.166 352.964 977.98C352.981 977.466 353.006 976.753 353.006 976.161C353.006 957.911 368.34 942.761 387.75 942.761C407.159 942.761 422.493 957.911 422.493 976.161C422.493 994.445 407.124 1009.71 387.75 1009.71C369.555 1009.71 354.716 996.269 352.968 979.606Z" stroke="#46FF09" stroke-width="14"/>
<path d="M987.019 770.334C967.518 770.334 951.647 754.54 951.244 735.006L951.244 734.215C951.251 714.395 967.217 698.43 987.035 698.43C1004.01 698.43 1018.33 710.138 1022.13 725.871L1023.42 731.229H1028.93H1064.05L1064.38 731.56L1064.39 731.562L1265.36 932.386L1267.41 934.435H1270.31H1815.22L1815.52 934.764L1815.65 934.915L1815.79 935.058L1882.14 1001.56L1884.19 1003.61H1887.1H2095.52H2098.42L2100.46 1001.57L2196.93 905.402L2198.99 903.35V900.444V709.291L2199.47 708.748L2596.68 311.545H2873.41L2873.74 311.876L2873.75 311.884L2936.21 374.344L2938.26 376.394H2941.16H3015.41H3018.3L3020.36 374.344L3050.92 343.782L3052.97 341.731V338.832V232.25L3053.3 231.958L3053.46 231.818L3053.6 231.669L3180.23 105.046L3181.27 108.057L3058.01 231.318L3055.96 233.368V236.268V343.047L3055.49 343.579L3020.01 378.751L3019.85 378.907L3019.71 379.072L3019.41 379.401H2936.89L2936.26 378.773L2936.25 378.765L2874.09 316.602L2872.04 314.552H2869.14H2601.08H2598.18L2596.13 316.601L2204.02 708.563L2201.97 710.613V713.514V904.439L2201.33 905.075L2201.33 905.083L2100.53 1006.17L2100 1006.64H1882.89L1882.35 1006.17L1816.15 939.672L1814.1 937.611H1811.19H1266.1L1265.56 937.132L1065.03 736.306L1062.98 734.252H1060.07H1029.51H1023.54L1022.6 740.145C1019.86 757.262 1004.93 770.334 987.019 770.334Z" stroke="#46FF09" stroke-width="14"/>
<path d="M2946.71 313.497L2945.7 307.688H2939.81H2917.51L2917.18 307.357L2917.17 307.349L2899.13 289.312L2897.08 287.262H2894.18H2585.57H2582.67L2580.62 289.313L2168.98 701.098L2166.93 703.148V706.047V885.69L2166.59 885.991L2166.44 886.128L2166.29 886.274L2079.08 973.785L2078.54 974.261H1901.51L1900.98 973.785L1838.95 911.759L1836.9 909.709H1834H1291.23L1290.89 909.37L1290.89 909.368L961.558 580.333L957.509 576.288L952.74 579.452C947.122 583.18 940.432 585.292 933.055 585.292C913.166 585.292 896.967 569.264 896.967 549.501V549.493C896.967 529.674 913.23 513.405 933.055 513.405C952.811 513.405 968.845 529.612 968.838 549.491L968.838 549.5C968.845 556.832 966.658 563.457 962.857 569.172L959.683 573.945L963.736 577.998L1290.39 904.66L1292.44 906.711H1295.34H1838.25L1838.88 907.34L1838.89 907.348L1900.77 969.221L1902.82 971.271H1905.72H2074.19H2077.08L2079.13 969.225L2161.88 886.628L2163.94 884.577V881.674V701.932L2164.27 701.6L2164.28 701.592L2580.98 284.9L2581.13 284.751L2581.27 284.593L2581.56 284.263H2898.14L2898.78 284.9L2899.41 284.263L2898.78 284.9L2916.52 302.639L2918.57 304.689H2921.47H2940.7H2946.23L2947.51 299.313C2951.28 283.5 2965.3 271.737 2982.15 271.737C3001.95 271.737 3017.94 287.726 3017.93 307.525V307.53C3017.94 327.337 3001.95 343.318 2982.15 343.318C2964.44 343.318 2949.62 330.38 2946.71 313.497Z" stroke="#46FF09" stroke-width="14"/>
<path d="M861.389 437.193C842.394 437.193 826.754 422.562 825.396 404.023L825.397 401.477C825.404 381.647 841.669 365.386 861.485 365.386C881.249 365.386 897.276 381.585 897.276 401.474C897.276 410.504 893.806 418.623 888.149 425.017L883.785 429.949L888.442 434.606L927.21 473.366L929.261 475.416H932.16H989.394L989.695 475.754L989.831 475.907L989.976 476.052L1057.22 543.291L1057.36 543.441L1057.52 543.58L1057.85 543.872V621.679V624.578L1059.9 626.628L1308.42 875.174L1310.47 877.225H1313.37H1858.48L1859.01 877.699L1927.14 946.127L1929.19 948.188H1932.1H2061.81H2064.72L2066.77 946.127L2133.11 879.483L2135.15 877.435V874.545V685.329L2135.63 684.786L2570.84 249.889L2570.99 249.739L2571.13 249.58L2571.42 249.25H2931.61H2934.51L2936.56 247.2L2980.24 203.516L2982.29 201.466V198.567V-318.12L3021.7 -357.53C3021.99 -356.699 3022.33 -355.714 3022.74 -354.533L2987.24 -319.034L2985.19 -316.984V-314.085V202.649L2984.86 202.941L2984.71 203.081L2984.56 203.23L2935.95 251.838L2935.62 252.169H2575.33H2572.43L2570.38 254.221L2140.1 684.798L2138.05 686.848V689.746V878.969L2137.58 879.506L2066.32 950.468L2066.17 950.614L2066.03 950.769L2065.73 951.107H1928.01L1927.54 950.618L1927.47 950.544L1927.4 950.473L1858.97 882.188L1856.92 880.143H1854.03H1309.27L1308.97 879.813L1308.83 879.653L1308.68 879.502L1055.23 626.489L1054.75 625.953V547.81V544.911L1052.7 542.861L990.23 480.392L988.179 478.342H985.28H928.1L884.673 434.915L881.189 431.43L876.733 433.535C871.933 435.803 866.742 437.193 861.389 437.193Z" stroke="#46FF09" stroke-width="14"/>
<path d="M2953.98 -337.376L2951.93 -335.326V-332.427V188.275L2951.6 188.601L2951.6 188.605L2922.08 217.973L2922.01 218.052L2921.93 218.133L2921.61 218.469H2555.49H2552.59L2550.54 220.519L2100.59 670.477L2098.54 672.527V675.427V866.491L2097.91 867.118L2097.9 867.126L2056.15 908.87L2055.82 909.21H1948.16L1947.83 908.879L1947.83 908.87L1877.9 838.952L1875.85 836.902H1872.95H1324.37L1323.73 836.265L1093.09 605.627L1092.76 605.958L1093.09 605.627L1092.76 605.296V524.4V521.497L1090.71 519.446L999.461 428.354L994.98 423.881L990.081 427.892C983.788 433.043 976.2 436.115 967.658 436.147C956.923 435.706 948.621 431.666 942.699 425.446C936.774 419.222 932.893 410.446 931.758 400.004C932.263 389.429 936.255 381.206 942.381 375.316C948.596 369.34 957.38 365.421 967.872 364.294C987.54 364.481 1003.47 380.526 1003.47 400.228C1003.47 406.037 1001.86 411.584 999.198 416.669L996.817 421.219L1000.44 424.855L1095.11 519.825L1095.26 519.975L1095.42 520.115L1095.75 520.408V601.205V604.105L1097.8 606.156L1323.67 831.879L1325.72 833.928H1328.62H1877.15L1877.68 834.403L1947.16 904.174L1949.21 906.235H1952.12H2051.86H2054.78L2056.83 904.164L2093.51 867.19L2095.54 865.144V862.261V671.104L2096.02 670.565L2550.9 215.98L2551.05 215.83L2551.19 215.672L2551.48 215.342H2917.78H2920.7L2922.76 213.261L2946.91 188.813L2948.93 186.768V183.893V-336.671L2949.26 -337.002L2949.27 -337.01L2995.49 -383.38L2997.54 -385.429V-388.322V-427.237L3000.53 -418.607V-383.926L3000.2 -383.594L3000.19 -383.585L2953.98 -337.376Z" stroke="#46FF09" stroke-width="14"/>
<path d="M1970.09 727.413C2006.27 727.413 2035.69 756.718 2035.69 792.863C2035.69 829.036 2006.25 858.474 1970.09 858.474C1933.94 858.474 1904.63 829.054 1904.63 792.863C1904.63 756.7 1933.92 727.413 1970.09 727.413Z" stroke="#46FF09" stroke-width="14"/>
<path d="M717.212 401.378L717.204 401.377C717.222 381.503 733.243 365.322 752.995 365.322C759.48 365.322 765.546 367.375 771.158 370.739L775.843 373.546L779.706 369.684L826.386 323.012L826.925 322.531H999.664L999.994 322.862L999.997 322.865L1131.2 454.359L1131.35 454.507L1131.5 454.646L1131.84 454.947V582.404V585.308L1133.9 587.359L1347.1 800.105L1349.15 802.151H1352.04H1814.82H1817.72L1819.77 800.1L2117.34 502.521L2117.35 502.512L2117.68 502.182H2207.07H2209.97L2212.02 500.131L2529.74 182.414L2530.28 181.931H2875.15H2878.08L2880.13 179.851L2904.28 155.402L2906.3 153.357V150.483V-339.535L2906.63 -339.843L2906.71 -339.921L2906.79 -340.001L2959.58 -392.928L2961.62 -394.977V-397.871V-530.845C2962.48 -528.373 2963.46 -525.524 2964.61 -522.217V-393.627L2964.28 -393.296L2964.27 -393.289L2911.49 -340.362L2909.45 -338.313V-335.419V154.734L2909.13 155.054L2909.11 155.075L2879.76 184.273L2879.6 184.428L2879.45 184.592L2879.16 184.922H2534.18H2531.28L2529.23 186.975L2211.67 504.833L2211.66 504.836L2211.33 505.164H2121.94H2119.04L2116.99 507.216L1819.42 804.939L1819.41 804.948L1819.08 805.278H1347.78L1128.84 586.343V458.931V456.034L1126.8 453.985L1000.52 327.551L998.466 325.498H995.564H831.127H828.227L826.177 327.548L782.638 371.087L778.374 375.351L781.96 380.199C786.403 386.208 789.091 393.523 789.091 401.378C789.091 421.141 772.885 437.169 753.003 437.169C733.184 437.169 717.212 421.204 717.212 401.378Z" stroke="#46FF09" stroke-width="14"/>
<path d="M2361.14 -35.6918L2359.09 -33.6414V-30.7412V150.464L2358.77 150.815L2358.61 150.977L2298.54 210.902L2298.39 211.047L2298.26 211.199L2297.95 211.537H2172.73H2169.83L2167.78 213.587L2070.72 310.649L2068.67 312.699V315.598V491.303L1799.37 760.598L1799.36 760.607L1799.03 760.937H1359.95L1359.61 760.598L1162.08 563.057L1162.07 563.048L1161.74 562.719V427.712V424.812L1159.69 422.762L1008.21 271.285L1006.16 269.235H1003.26H665.186L664.855 268.904L664.524 269.235L664.855 268.904L563.618 167.667L561.568 165.617H558.668H88.7354H85.8359L83.7856 167.667L18.5968 232.856H-757.04L-757.333 232.527L-757.457 232.387L-757.588 232.254L-771.602 218.087L-776.537 213.099L-781.513 218.045C-788.07 224.562 -796.948 228.536 -806.843 228.536C-826.685 228.536 -842.787 212.516 -842.787 192.745C-842.787 172.924 -826.69 156.954 -806.852 156.954C-787.006 156.954 -770.916 172.923 -770.916 192.745C-770.916 197.423 -771.859 201.932 -773.535 206.073L-775.263 210.345L-772.022 213.621L-758.008 227.788L-755.953 229.865H-753.031H14.6341H17.543L19.5952 227.804L84.005 163.097L84.5344 162.626H562.623L664.191 264.194L666.241 266.244H669.14H1007.52L1008.15 266.873L1008.16 266.88L1164.73 423.459V558.465V561.365L1166.78 563.415L1359.25 755.896L1361.3 757.947H1364.2H1794.77H1797.67L1799.72 755.898L2063.61 492.155L2065.67 490.104V487.204V311.589L2066 311.297L2066.16 311.151L2066.31 310.996L2167.84 209.018L2168.37 208.546H2293.94H2296.84L2298.89 206.489L2354.06 151.173L2356.1 149.124V146.23V-35.0021L2356.73 -35.6309L2801.17 -480.077L2803.22 -482.128V-485.027V-982.443L2806.21 -973.813V-480.614L2805.88 -480.283L2361.14 -35.6918Z" stroke="#46FF09" stroke-width="14"/>
<path d="M2777.1 -508.189L2776.95 -508.052L2776.8 -507.907L2320.29 -51.0947L2318.24 -49.0448V-46.1466V124.338L2317.91 124.668L2275.57 166.863L2275.56 166.872L2275.23 167.202H2163.03H2160.13L2158.08 169.255L2029.26 298.214L2027.21 300.264V303.161V479.976L2026.88 480.268L2026.73 480.409L2026.58 480.558L1781.78 725.515L1781.77 725.525L1781.44 725.854H1378.46L1378.1 725.523L1377.94 725.372L1191.6 539.011L1191.59 539.003L1191.26 538.671V408.879V405.979L1189.21 403.929L1018.05 232.775L1016 230.724H1013.1H679.21L678.88 230.394L678.873 230.386L678.865 230.378L577.628 129.447L575.579 127.404H572.686H75.4728H72.5824L70.5341 129.444L5.38654 194.301L5.38367 194.304L5.04327 194.643H-697.132L-697.674 194.163L-769.831 121.997L-771.882 119.947H-774.781H-826.068H-828.967L-831.017 121.997L-878.579 169.558L-882.508 173.488L-879.572 178.206C-876.076 183.825 -873.919 190.147 -873.919 196.873C-873.919 216.644 -890.175 232.815 -910.005 232.808H-910.01C-929.785 232.815 -945.799 216.708 -945.799 196.873L-945.807 196.871C-945.797 177.031 -929.823 161.108 -910.019 161.098C-902.131 161.105 -895.088 163.484 -889.188 167.701L-884.354 171.156L-880.16 166.948L-830.808 117.444L-830.276 116.972H-770.529L-697.891 189.618L-695.841 191.669H-692.941H1.07367H3.97321L6.02344 189.618L71.2122 124.43H576.945L577.281 124.764L577.286 124.769L678.365 225.703L680.414 227.75H683.311H1017.35L1017.98 228.378L1017.99 228.386L1194.25 404.643V534.427V537.329L1196.3 539.379L1377.89 720.815L1379.94 722.863H1382.84H1777.18H1780.08L1782.13 720.813L2022.16 480.778L2024.22 478.728V475.829V298.95L2024.56 298.583L2024.7 298.438L2158.44 164.556L2158.44 164.55L2158.77 164.22H2270.97H2273.87L2275.92 162.169L2313.19 124.897L2315.24 122.847V119.948V-50.6362L2315.72 -51.1808L2772.39 -507.548L2774.44 -509.599V-512.5V-1065.47L2777.44 -1056.83V-508.49L2777.1 -508.189Z" stroke="#46FF09" stroke-width="14"/>
<path d="M-530.404 32.1613V140.259H-692.176V51.5414V48.6387L-694.23 46.5878L-792.185 -51.2136L-794.234 -53.26H-797.13H-1750.95C-1740.65 -82.9662 -1737.73 -91.3708 -1735.47 -97.9066C-1733.47 -103.677 -1731.97 -107.991 -1726.34 -124.222H-764.697L-754.527 -114.052L-754.524 -114.049L-625.863 14.4675L-620.913 19.4119L-615.966 14.4645L-492.67 -108.839L-492.655 -108.854L-492.64 -108.87L-482.322 -119.315H1022.18L1032.35 -108.899L1032.38 -108.869L1032.41 -108.839L1099.2 -42.0424L1099.22 -42.027L1099.23 -42.0117L1109.53 -31.847V169.785V172.684L1111.58 174.735L1292.12 355.278L1292.15 355.307L1292.18 355.337L1302.6 365.505V483.47V486.37L1304.65 488.42L1405.58 589.351L1407.63 591.402H1410.53H1731.37H1734.27L1736.32 589.351L1916.72 408.953L1918.77 406.903V404.003V228.774L1929.22 218.456L1929.23 218.439L1929.25 218.422L2010.5 137.016L2012.55 134.966V132.071V-143.831L2023.02 -154.299L2171.67 -302.798L2171.68 -302.814L2171.7 -302.83L2182.02 -313.268H2401.1H2404L2406.05 -315.319L2669.49 -578.772L2671.54 -580.822V-583.722V-1362.31C2681.16 -1334.54 2690.79 -1306.77 2700.41 -1279.01L2742.51 -1157.55V-551.174L2732.07 -540.848L2732.06 -540.834L2732.05 -540.819L2444 -252.623L2444 -252.62L2433.53 -242.154H2214.28H2211.38L2209.33 -240.106L2085.74 -116.658L2083.69 -114.607V-111.705V164.453L2073.27 174.613L2073.24 174.648L2073.2 174.683L1991.95 256.234L1989.91 258.283V261.175V436.139L1763.52 662.532H1378.4L1367.93 652.058L1367.93 652.057L1241.95 526.076L1241.95 526.074L1231.48 515.6V397.881V394.984L1229.43 392.934L1049.03 212.382L1049.02 212.366L1049 212.35L1038.56 202.032V0.553101V-2.34644L1036.51 -4.39661L994.762 -46.1416L992.712 -48.1918H989.812H-450.051H-452.95L-455 -46.1416L-528.354 27.2115L-530.404 29.2618V32.1613Z" stroke="#46FF09" stroke-width="14"/>
<path d="M1662.71 75.3472V99.3603H1529.7V-31.4072H1662.71V15.268V18.1675L1664.76 20.2178L1859.27 214.733L1859.33 214.791L1863.4 218.952V396.978L1859.28 401.298L1725.9 534.372L1725.83 534.433L1725.77 534.497L1721.73 538.739H1436.9L1432.54 534.377L1388.4 490.243L1385.8 487.635L1382.17 488.312C1379.96 488.725 1378.02 488.941 1375.85 488.941C1357.26 488.941 1341.86 474.811 1340.03 456.766C1340 456.496 1339.99 456.139 1340.01 455.517C1340.01 455.394 1340.02 455.234 1340.03 455.049C1340.04 454.517 1340.07 453.782 1340.07 453.142C1340.07 433.309 1356.08 417.207 1375.86 417.207C1395.63 417.207 1411.65 433.31 1411.65 453.142C1411.65 457.211 1410.78 461.305 1409.37 465.263L1407.89 469.43L1411.01 472.557L1446.65 508.187L1448.7 510.238H1451.6H1706.99H1709.88L1711.93 508.191L1832.85 387.429L1834.9 385.378V382.476V233.381V230.479L1832.85 228.428L1674.65 70.395L1662.71 58.4599V75.3472Z" stroke="#46FF09" stroke-width="14"/>
<path d="M1330.96 -111.974L1330.97 -111.968L1330.97 -111.962L1332.65 -110.288V236.269V239.146L1334.67 241.191L1494.19 402.507L1500.96 409.351L1505.39 400.803C1511.43 389.135 1523.35 381.182 1537.19 381.182C1557 381.182 1572.98 397.171 1572.98 416.965C1572.98 436.825 1557.01 452.756 1537.19 452.756C1521.53 452.756 1508.04 442.802 1503.08 428.93L1502.56 427.471L1501.48 426.368L1322.86 245.367L1322.85 245.35L1322.83 245.334L1321.16 243.659V-102.605V-105.501L1319.11 -107.551L1220.7 -206.101L1218.65 -208.154H1215.75H-1697.25L-1693.26 -219.649H1223.59L1225.26 -217.981L1225.27 -217.974L1330.96 -111.974Z" stroke="#46FF09" stroke-width="14"/>
<path d="M1469.12 -293.576L1469.13 -293.573L1470.81 -291.89V138.169V141.041L1472.83 143.085L1494.6 165.152L1496.65 167.236H1499.58H1683.79L1685.46 168.911L1685.47 168.921L1760.66 243.805L1760.76 243.915L1762.43 245.651V343.696L1760.76 345.363L1760.75 345.371L1714.99 390.985L1711.2 394.756L1713.84 399.402C1716.9 404.779 1718.74 410.694 1718.74 416.964C1718.74 436.825 1702.77 452.755 1682.95 452.755C1663.15 452.755 1647.17 436.826 1647.17 416.964C1647.17 397.169 1663.15 381.182 1682.95 381.182C1688.32 381.182 1693.51 382.56 1698.3 384.829L1702.76 386.938L1706.25 383.451L1748.88 340.814L1750.93 338.763V335.864V253.267V250.359L1748.87 248.307L1681.04 180.77L1678.99 178.731H1676.1H1491.9L1490.24 177.073L1490.22 177.053L1461.02 147.556L1461.01 147.544L1461 147.531L1459.32 145.857V-284.355V-287.26L1457.27 -289.311L1329.94 -416.34L1327.89 -418.384H1325H-1636.37L-1632.34 -430.023H1332.83L1334.5 -428.351L1334.5 -428.349L1469.12 -293.576Z" stroke="#46FF09" stroke-width="14"/>
<path d="M2162.94 346.628C2182.74 346.628 2198.73 362.618 2198.73 382.41C2198.73 402.332 2182.68 418.497 2162.94 418.497C2143.19 418.497 2127.15 402.333 2127.15 382.41C2127.15 362.617 2143.13 346.628 2162.94 346.628Z" stroke="#46FF09" stroke-width="14"/>
<mask id="path-58-inside-3_10_2" fill="white">
<path d="M918.742 388.211V388.212V388.212V388.211Z"/>
</mask>
<path d="M904.742 388.211V388.212H932.742V388.211H904.742ZM904.742 388.212V388.212H932.742V388.212H904.742ZM932.742 388.212V388.211H904.742V388.212H932.742Z" fill="#46FF09" mask="url(#path-58-inside-3_10_2)"/>
<path d="M1375.08 204.37V207.265L1377.13 209.315L1454.06 286.392L1456.11 288.447H1459.01H1495.69H1499.71L1501.74 284.974C1507.95 274.313 1519.48 267.129 1532.66 267.129C1552.47 267.129 1568.45 283.109 1568.45 302.919C1568.45 322.729 1552.47 338.71 1532.66 338.71C1514.06 338.71 1498.87 324.491 1497.14 306.279L1496.54 299.942H1490.17H1451.32L1449.65 298.267L1365.12 213.732L1365.11 213.726L1363.43 212.053V-150.466V-153.365L1361.38 -155.415L1254.34 -262.468L1252.29 -264.519H1249.39H-1677.71L-1673.73 -276.005H1256.93L1258.85 -274.234L1373.4 -159.833L1373.41 -159.824L1375.08 -158.149V204.37Z" stroke="#46FF09" stroke-width="14"/>
<path d="M1502.98 213.123H1687.87V259.798V266.166L1694.21 266.767C1712.43 268.493 1726.64 283.682 1726.64 302.283C1726.64 322.092 1710.65 338.074 1690.85 338.074C1670.97 338.074 1654.76 322.03 1654.76 302.283C1654.76 289.207 1662.07 277.795 1672.89 271.515L1676.38 269.492V265.462V231.617V224.617H1669.38H1495.15L1430.06 159.525L1428.29 157.608V-234.591V-237.491L1426.24 -239.541L1321.87 -343.907L1319.82 -345.957H1316.92H-1649.48L-1645.49 -357.444H1324.31L1325.99 -355.764L1326 -355.759L1438.16 -244.044L1438.26 -243.936L1439.78 -242.352V150.066V152.971L1441.84 155.022L1498.04 211.079L1500.09 213.123H1502.98Z" stroke="#46FF09" stroke-width="14"/>
<path d="M990.314 38.8806V186.201H843.002V38.8806H990.314Z" stroke="#46FF09" stroke-width="14"/>
<path d="M1216.62 48.469C1252.79 48.469 1282.23 77.9084 1282.23 114.072C1282.23 150.218 1252.81 179.531 1216.62 179.531C1180.47 179.531 1151.31 150.256 1151.31 114.072C1151.31 77.8703 1180.49 48.469 1216.62 48.469Z" stroke="#46FF09" stroke-width="14"/>
<path d="M1894.42 -21.8992C1930.57 -21.8992 1959.73 7.37577 1959.73 43.5594C1959.73 79.7238 1930.59 108.865 1894.42 108.865C1858.22 108.865 1828.82 79.6863 1828.82 43.5594C1828.82 7.41328 1858.24 -21.8992 1894.42 -21.8992Z" stroke="#46FF09" stroke-width="14"/>
<path d="M2250.31 -25.2139V105.695H2117.31V-25.2139H2250.31Z" stroke="#46FF09" stroke-width="14"/>
<path d="M-530.404 32.1613V140.259H-692.176V51.5414V48.6387L-694.23 46.5878L-792.185 -51.2136L-794.234 -53.26H-797.13H-1750.95C-1740.65 -82.9662 -1737.73 -91.3708 -1735.47 -97.9066C-1733.47 -103.677 -1731.97 -107.991 -1726.34 -124.222H-764.697L-754.527 -114.052L-754.524 -114.049L-625.863 14.4675L-620.913 19.4119L-615.966 14.4645L-492.67 -108.839L-492.655 -108.854L-492.64 -108.87L-482.322 -119.315H1022.18L1032.35 -108.899L1032.38 -108.869L1032.41 -108.839L1099.2 -42.0424L1099.22 -42.027L1099.23 -42.0117L1109.53 -31.847V169.785V172.684L1111.58 174.735L1292.12 355.278L1292.15 355.307L1292.18 355.337L1302.6 365.505V483.47V486.37L1304.65 488.42L1405.58 589.351L1407.63 591.402H1410.53H1731.37H1734.27L1736.32 589.351L1916.72 408.953L1918.77 406.903V404.003V228.774L1929.22 218.456L1929.23 218.439L1929.25 218.422L2010.5 137.016L2012.55 134.966V132.071V-143.831L2023.02 -154.299L2171.67 -302.798L2171.68 -302.814L2171.7 -302.83L2182.02 -313.268H2401.1H2404L2406.05 -315.319L2669.49 -578.772L2671.54 -580.822V-583.722V-1362.31C2681.16 -1334.54 2690.79 -1306.77 2700.41 -1279.01L2742.51 -1157.55V-551.174L2732.07 -540.848L2732.06 -540.834L2732.05 -540.819L2444 -252.623L2444 -252.62L2433.53 -242.154H2214.28H2211.38L2209.33 -240.106L2085.74 -116.658L2083.69 -114.607V-111.705V164.453L2073.27 174.613L2073.24 174.648L2073.2 174.683L1991.95 256.234L1989.91 258.283V261.175V436.139L1763.52 662.532H1378.4L1367.93 652.058L1367.93 652.057L1241.95 526.076L1241.95 526.074L1231.48 515.6V397.881V394.984L1229.43 392.934L1049.03 212.382L1049.02 212.366L1049 212.35L1038.56 202.032V0.553101V-2.34644L1036.51 -4.39661L994.762 -46.1416L992.712 -48.1918H989.812H-450.051H-452.95L-455 -46.1416L-528.354 27.2115L-530.404 29.2618V32.1613Z" fill="#46FF09" stroke="#46FF09" stroke-width="14"/>
</g>
</g>
<defs>
<clipPath id="clip0_10_2">
<rect width="2347" height="1815" fill="white"/>
</clipPath>
</defs>
</svg>
