<?xml version="1.0" encoding="UTF-8"?>
<!DOCTYPE svg PUBLIC "-//W3C//DTD SVG 1.1//EN" "http://www.w3.org/Graphics/SVG/1.1/DTD/svg11.dtd">
<svg xmlns="http://www.w3.org/2000/svg" version="1.1" width="3850px" height="1852px" style="shape-rendering:geometricPrecision; text-rendering:geometricPrecision; image-rendering:optimizeQuality; fill-rule:evenodd; clip-rule:evenodd" xmlns:xlink="http://www.w3.org/1999/xlink">
<g><path style="opacity:0.996" fill="#00d585" d="M 3307.5,-0.5 C 3312.5,-0.5 3317.5,-0.5 3322.5,-0.5C 3390.52,2.0917 3446.35,29.425 3490,81.5C 3528.13,129.08 3555.79,182.413 3573,241.5C 3595.65,321.061 3610.65,402.061 3618,484.5C 3628.46,602.279 3632.13,720.279 3629,838.5C 3627.63,946.264 3617.96,1053.26 3600,1159.5C 3590.09,1217.48 3574.42,1273.81 3553,1328.5C 3535.37,1368.45 3512.71,1405.12 3485,1438.5C 3439.82,1489.08 3383.16,1514.41 3315,1514.5C 3232.7,1513.19 3168.37,1478.86 3122,1411.5C 3091.85,1368.78 3069.51,1322.11 3055,1271.5C 3031.43,1187.67 3016.1,1102.34 3009,1015.5C 2995.4,847.194 2995.06,678.861 3008,510.5C 3014.82,419.588 3030.49,330.255 3055,242.5C 3073.71,177.062 3105.37,119.062 3150,68.5C 3193.25,24.6281 3245.75,1.6281 3307.5,-0.5 Z M 3312.5,189.5 C 3322.86,189.762 3331.03,194.095 3337,202.5C 3345.21,215.629 3350.21,229.962 3352,245.5C 3363.51,325.766 3370.51,406.433 3373,487.5C 3379,667.167 3379,846.833 3373,1026.5C 3370.49,1103.49 3364.15,1180.15 3354,1256.5C 3352.24,1274.34 3347.57,1291.34 3340,1307.5C 3323.05,1330.16 3306.05,1330.16 3289,1307.5C 3282.2,1294.29 3277.86,1280.29 3276,1265.5C 3264.9,1184.87 3258.23,1103.87 3256,1022.5C 3253.13,934.024 3251.96,845.524 3252.5,757C 3251.34,635.403 3254.17,513.903 3261,392.5C 3264.03,342.579 3269.36,292.913 3277,243.5C 3278.56,224.449 3286.06,208.282 3299.5,195C 3303.56,192.265 3307.89,190.432 3312.5,189.5 Z"/></g>
<g><path style="opacity:0.997" fill="#00d585" d="M 2490.5,190.5 C 2556.17,190.333 2621.83,190.5 2687.5,191C 2747.9,194.615 2797.07,219.782 2835,266.5C 2867.16,305.802 2890.16,350.136 2904,399.5C 2920.91,458.738 2931.91,519.071 2937,580.5C 2946.59,694.472 2946.92,808.472 2938,922.5C 2933.02,989.052 2921.35,1054.39 2903,1118.5C 2885.8,1180.11 2853.96,1232.61 2807.5,1276C 2773.72,1304.16 2734.72,1319.83 2690.5,1323C 2623.83,1323.5 2557.17,1323.67 2490.5,1323.5C 2490.5,945.833 2490.5,568.167 2490.5,190.5 Z M 2669.5,345.5 C 2683.8,343.445 2695.97,347.445 2706,357.5C 2720.57,379.329 2729.57,403.329 2733,429.5C 2739.21,473.963 2743.21,518.629 2745,563.5C 2751,692.5 2751,821.5 2745,950.5C 2743.15,995.698 2739.15,1040.7 2733,1085.5C 2729.45,1110.83 2720.78,1134.16 2707,1155.5C 2696.98,1166.64 2684.48,1170.97 2669.5,1168.5C 2669.5,894.167 2669.5,619.833 2669.5,345.5 Z"/></g>
<g><path style="opacity:0.993" fill="#00d585" d="M 1117.5,247.5 C 1203.84,242.573 1266.34,278.573 1305,355.5C 1319.23,387.649 1327.23,421.316 1329,456.5C 1329.5,502.832 1329.67,549.165 1329.5,595.5C 1279.83,595.5 1230.17,595.5 1180.5,595.5C 1180.8,553.822 1180.3,512.156 1179,470.5C 1178.22,446.152 1173.89,422.485 1166,399.5C 1161.94,389.779 1155.44,382.279 1146.5,377C 1128.14,372.763 1115.98,379.596 1110,397.5C 1095.25,463.395 1102.58,526.728 1132,587.5C 1149.15,621.826 1168.82,654.493 1191,685.5C 1207.67,706.833 1224.33,728.167 1241,749.5C 1273.47,798.454 1298.47,851.121 1316,907.5C 1332.88,975.256 1333.88,1043.26 1319,1111.5C 1307.03,1164.67 1279.19,1207.17 1235.5,1239C 1188.27,1267.53 1137.93,1274.53 1084.5,1260C 1030.78,1241.62 992.28,1206.45 969,1154.5C 955.801,1123.18 948.468,1090.51 947,1056.5C 946.5,1010.83 946.333,965.168 946.5,919.5C 995.833,919.5 1045.17,919.5 1094.5,919.5C 1095.25,960.499 1096.08,1001.5 1097,1042.5C 1097.82,1064.57 1101.15,1086.23 1107,1107.5C 1109.97,1118.62 1115.8,1127.79 1124.5,1135C 1141.89,1142.65 1155.05,1138.15 1164,1121.5C 1167.6,1112.15 1169.94,1102.49 1171,1092.5C 1178,1040.17 1171,989.836 1150,941.5C 1136.13,910.085 1119.47,880.418 1100,852.5C 1073.84,816.852 1048.18,780.852 1023,744.5C 989.544,692.821 966.211,636.821 953,576.5C 942.459,514.659 944.792,453.326 960,392.5C 974.746,338.757 1005.58,297.257 1052.5,268C 1073.05,257.204 1094.71,250.371 1117.5,247.5 Z"/></g>
<g><path style="opacity:0.994" fill="#00d585" d="M 2252.5,247.5 C 2307.83,247.5 2363.17,247.5 2418.5,247.5C 2418.5,587.5 2418.5,927.5 2418.5,1267.5C 2363.17,1267.5 2307.83,1267.5 2252.5,1267.5C 2219.76,1069.87 2186.42,872.37 2152.5,675C 2149.47,674.505 2146.47,674.671 2143.5,675.5C 2154.2,860.809 2164.54,1046.14 2174.5,1231.5C 2136.83,1231.67 2099.17,1231.5 2061.5,1231C 2044,1216.17 2026.5,1201.33 2009,1186.5C 2008.33,900.167 2008.33,613.833 2009,327.5C 2029.5,309.667 2050,291.833 2070.5,274C 2105.17,273.167 2139.84,273.333 2174.5,274.5C 2206.11,457.8 2237.61,641.133 2269,824.5C 2274.74,823.306 2280.57,822.472 2286.5,822C 2287.17,821.667 2287.83,821.333 2288.5,821C 2276.48,629.863 2264.48,438.697 2252.5,247.5 Z"/></g>
<g><path style="opacity:0.944" fill="#00d585" d="M 3712.5,247.5 C 3719.17,247.334 3725.84,247.5 3732.5,248C 3744.79,251.116 3751.45,258.949 3752.5,271.5C 3746.79,271.829 3741.13,271.495 3735.5,270.5C 3733.07,264.782 3728.73,261.782 3722.5,261.5C 3717.69,261.82 3713.86,263.82 3711,267.5C 3709.88,270.956 3710.71,273.79 3713.5,276C 3720.91,279.104 3728.58,281.438 3736.5,283C 3752.76,289.883 3757.26,301.383 3750,317.5C 3745.63,323.434 3739.8,326.934 3732.5,328C 3720.9,329.876 3709.9,328.209 3699.5,323C 3692.82,317.803 3689.82,310.97 3690.5,302.5C 3696.17,302.5 3701.83,302.5 3707.5,302.5C 3707.82,308.309 3710.82,311.809 3716.5,313C 3720.5,313.667 3724.5,313.667 3728.5,313C 3736.87,308.867 3737.53,303.867 3730.5,298C 3720.18,295.587 3710.18,292.254 3700.5,288C 3692.05,279.905 3690.21,270.405 3695,259.5C 3697.5,257 3700,254.5 3702.5,252C 3705.89,250.38 3709.23,248.88 3712.5,247.5 Z"/></g>
<g><path style="opacity:0.957" fill="#00d585" d="M 3849.5,248.5 C 3849.5,274.833 3849.5,301.167 3849.5,327.5C 3843.83,327.5 3838.17,327.5 3832.5,327.5C 3832.67,311.163 3832.5,294.83 3832,278.5C 3825.67,294.5 3819.33,310.5 3813,326.5C 3808.88,327.798 3804.72,327.798 3800.5,326.5C 3793.9,310.54 3787.4,294.54 3781,278.5C 3780.5,294.83 3780.33,311.163 3780.5,327.5C 3774.83,327.5 3769.17,327.5 3763.5,327.5C 3763.5,301.167 3763.5,274.833 3763.5,248.5C 3770.86,248.169 3778.2,248.503 3785.5,249.5C 3792.12,266.363 3799.12,283.03 3806.5,299.5C 3813.88,283.03 3820.88,266.363 3827.5,249.5C 3834.8,248.503 3842.14,248.169 3849.5,248.5 Z"/></g>
<g><path style="opacity:0.991" fill="#00d585" d="M 708.5,327.5 C 777.833,327.5 847.167,327.5 916.5,327.5C 916.5,361.833 916.5,396.167 916.5,430.5C 877.499,430.333 838.499,430.5 799.5,431C 777.899,436.601 765.399,450.435 762,472.5C 761.5,544.833 761.333,617.166 761.5,689.5C 801.167,689.5 840.833,689.5 880.5,689.5C 880.5,730.5 880.5,771.5 880.5,812.5C 840.833,812.5 801.167,812.5 761.5,812.5C 761.333,891.167 761.5,969.834 762,1048.5C 764.445,1067.94 774.778,1081.28 793,1088.5C 796.75,1089.71 800.584,1090.54 804.5,1091C 841.832,1091.5 879.165,1091.67 916.5,1091.5C 916.5,1123.17 916.5,1154.83 916.5,1186.5C 847.166,1186.67 777.833,1186.5 708.5,1186C 685.667,1163.17 662.833,1140.33 640,1117.5C 639.333,877.167 639.333,636.833 640,396.5C 663.035,373.632 685.868,350.632 708.5,327.5 Z"/></g>
<g><path style="opacity:0.991" fill="#00d585" d="M 1759.5,327.5 C 1828.83,327.5 1898.17,327.5 1967.5,327.5C 1967.5,368.5 1967.5,409.5 1967.5,450.5C 1930.14,450.045 1892.8,450.545 1855.5,452C 1836.57,457.267 1824.73,469.434 1820,488.5C 1819.5,555.499 1819.33,622.499 1819.5,689.5C 1856.5,689.5 1893.5,689.5 1930.5,689.5C 1930.5,730.5 1930.5,771.5 1930.5,812.5C 1893.5,812.5 1856.5,812.5 1819.5,812.5C 1819.33,883.834 1819.5,955.167 1820,1026.5C 1824.5,1047 1837,1059.5 1857.5,1064C 1894.17,1064.5 1930.83,1064.67 1967.5,1064.5C 1967.5,1105.17 1967.5,1145.83 1967.5,1186.5C 1898.17,1186.67 1828.83,1186.5 1759.5,1186C 1736.67,1163.17 1713.83,1140.33 1691,1117.5C 1690.33,877.167 1690.33,636.833 1691,396.5C 1714.03,373.632 1736.87,350.632 1759.5,327.5 Z"/></g>
<g><path style="opacity:0.99" fill="#00d585" d="M 286.5,386.5 C 333.516,386.085 380.516,386.585 427.5,388C 499.2,397.433 546.033,436.6 568,505.5C 579.291,547.021 579.958,588.688 570,630.5C 561.684,659.305 546.184,683.472 523.5,703C 513.714,710.783 503.38,717.783 492.5,724C 477.167,731.333 461.833,738.667 446.5,746C 438.887,752.669 438.554,759.669 445.5,767C 462.055,773.306 478.722,779.306 495.5,785C 516.328,792.837 534.162,805.004 549,821.5C 561.402,837.357 568.735,855.357 571,875.5C 571.034,944.853 571.7,1014.19 573,1083.5C 574.775,1094.88 579.609,1104.72 587.5,1113C 589.167,1113.83 590.833,1114.67 592.5,1115.5C 593.491,1119.45 593.824,1123.45 593.5,1127.5C 560.498,1127.67 527.498,1127.5 494.5,1127C 475.066,1125.22 462.566,1115.06 457,1096.5C 455.615,1091.24 454.615,1085.91 454,1080.5C 453.971,1008.81 453.304,937.145 452,865.5C 447.256,840.524 432.09,827.857 406.5,827.5C 406.5,915.833 406.5,1004.17 406.5,1092.5C 366.5,1092.5 326.5,1092.5 286.5,1092.5C 286.5,857.167 286.5,621.833 286.5,386.5 Z M 406.5,484.5 C 427.035,484.529 440.868,494.196 448,513.5C 455.631,537.041 459.131,561.207 458.5,586C 458.767,606.436 456.6,626.603 452,646.5C 448.893,661.234 441.393,673.068 429.5,682C 422.312,685.755 414.645,687.588 406.5,687.5C 406.5,619.833 406.5,552.167 406.5,484.5 Z"/></g>
<g><path style="opacity:0.992" fill="#00d585" d="M 1502.5,389.5 C 1552.54,385.274 1591.38,403.94 1619,445.5C 1638.17,478.513 1648.84,514.18 1651,552.5C 1652.43,598.482 1652.93,644.482 1652.5,690.5C 1614.83,690.5 1577.17,690.5 1539.5,690.5C 1539.67,658.165 1539.5,625.832 1539,593.5C 1538.88,571.124 1537.88,548.791 1536,526.5C 1535.03,512.989 1532.03,499.989 1527,487.5C 1514.02,478.156 1504.69,481.156 1499,496.5C 1493.7,521.897 1490.36,547.563 1489,573.5C 1486.89,605.134 1485.56,636.8 1485,668.5C 1483.9,748.185 1484.57,827.852 1487,907.5C 1488.05,929.879 1489.72,952.213 1492,974.5C 1493.22,989.025 1495.55,1003.36 1499,1017.5C 1501.91,1027.43 1508.41,1032.27 1518.5,1032C 1522.47,1031.04 1525.64,1028.87 1528,1025.5C 1530.44,1020.07 1532.11,1014.4 1533,1008.5C 1535.72,992.61 1537.39,976.61 1538,960.5C 1538.41,942.331 1538.91,924.164 1539.5,906C 1538.62,874.173 1538.29,842.34 1538.5,810.5C 1576.5,810.5 1614.5,810.5 1652.5,810.5C 1652.67,856.501 1652.5,902.501 1652,948.5C 1651.1,988.783 1641.43,1026.78 1623,1062.5C 1586.33,1120.06 1535.5,1137.89 1470.5,1116C 1452.76,1108.26 1437.93,1096.76 1426,1081.5C 1403.5,1051.72 1388.5,1018.39 1381,981.5C 1369.99,931.091 1363.66,880.091 1362,828.5C 1358.88,758.048 1360.55,687.714 1367,617.5C 1371.01,573.76 1380.01,531.094 1394,489.5C 1404.1,463.454 1418.6,440.287 1437.5,420C 1455.98,403.009 1477.65,392.842 1502.5,389.5 Z"/></g>
<g><path style="opacity:0.989" fill="#00d585" d="M -0.5,803.5 C -0.5,772.5 -0.5,741.5 -0.5,710.5C 0.922817,670.036 5.08948,629.703 12,589.5C 16.8024,560.76 25.8024,533.426 39,507.5C 68.128,455.865 111.295,438.365 168.5,455C 192.557,466.39 210.723,483.89 223,507.5C 236.371,537.015 243.371,568.015 244,600.5C 244.5,630.498 244.667,660.498 244.5,690.5C 212.833,690.5 181.167,690.5 149.5,690.5C 149.522,650.146 148.689,609.812 147,569.5C 146.261,556.389 143.594,543.723 139,531.5C 128.889,523.478 121.222,525.478 116,537.5C 111.78,555.589 109.113,573.923 108,592.5C 105.907,619.796 104.573,647.129 104,674.5C 103.125,740.175 103.458,805.842 105,871.5C 105.812,905.764 109.145,939.764 115,973.5C 117.067,983.929 123.234,988.429 133.5,987C 139.276,983.965 142.443,979.132 143,972.5C 145.69,958.288 147.357,943.955 148,929.5C 148.5,889.835 148.667,850.168 148.5,810.5C 180.5,810.5 212.5,810.5 244.5,810.5C 244.904,850.184 244.404,889.851 243,929.5C 241.092,958.802 233.425,986.469 220,1012.5C 188.333,1062.39 144.5,1077.22 88.5,1057C 67.6667,1045.5 51.5,1029.33 40,1008.5C 26.2739,981.988 16.9406,953.988 12,924.5C 5.08961,884.299 0.922948,843.965 -0.5,803.5 Z"/></g>
<g><path style="opacity:0.973" fill="#fefffe" d="M 2075.5,1567.5 C 2090.5,1567.5 2105.5,1567.5 2120.5,1567.5C 2085.88,1629.39 2050.72,1691.06 2015,1752.5C 1999.9,1753.82 1984.73,1753.82 1969.5,1752.5C 1977.5,1738.5 1985.5,1724.5 1993.5,1710.5C 1953.5,1709.67 1913.5,1709.17 1873.5,1709C 1880.96,1696.58 1888.29,1684.08 1895.5,1671.5C 1936.17,1670.83 1976.83,1670.17 2017.5,1669.5C 2037.29,1635.72 2056.62,1601.72 2075.5,1567.5 Z"/></g>
<g><path style="opacity:0.971" fill="#fefffe" d="M 2164.5,1567.5 C 2179.51,1567.17 2194.51,1567.5 2209.5,1568.5C 2174.21,1630.25 2138.55,1691.75 2102.5,1753C 2087.5,1753.67 2072.5,1753.67 2057.5,1753C 2065.83,1738.67 2074.17,1724.33 2082.5,1710C 2071.83,1709.67 2061.17,1709.33 2050.5,1709C 2057.96,1696.58 2065.29,1684.08 2072.5,1671.5C 2083.73,1670.82 2094.89,1670.16 2106,1669.5C 2125.33,1635.35 2144.83,1601.35 2164.5,1567.5 Z"/></g>
<g><path style="opacity:0.969" fill="#fefffe" d="M 2229.5,1567.5 C 2244.5,1567.33 2259.5,1567.5 2274.5,1568C 2238.83,1629.67 2203.17,1691.33 2167.5,1753C 2152.49,1753.83 2137.49,1753.67 2122.5,1752.5C 2157.93,1690.64 2193.59,1628.98 2229.5,1567.5 Z"/></g>
<g><path style="opacity:0.972" fill="#fefffe" d="M 2356.5,1567.5 C 2371.5,1567.33 2386.5,1567.5 2401.5,1568C 2365.83,1629.67 2330.17,1691.33 2294.5,1753C 2277.17,1753.5 2259.84,1753.67 2242.5,1753.5C 2242.5,1738.83 2242.5,1724.17 2242.5,1709.5C 2229.48,1709.83 2216.48,1709.5 2203.5,1708.5C 2210.71,1695.92 2218.04,1683.42 2225.5,1671C 2231.16,1670.5 2236.82,1670.33 2242.5,1670.5C 2242.33,1660.49 2242.5,1650.49 2243,1640.5C 2255.08,1619.34 2267.41,1598.34 2280,1577.5C 2280.33,1617.83 2280.67,1658.17 2281,1698.5C 2306.18,1654.81 2331.35,1611.14 2356.5,1567.5 Z"/></g>
<g><path style="opacity:0.976" fill="#fefffe" d="M 2487.5,1567.5 C 2542.5,1567.5 2597.5,1567.5 2652.5,1567.5C 2645.84,1580.97 2638.51,1594.14 2630.5,1607C 2589.83,1607.33 2549.17,1607.67 2508.5,1608C 2505.8,1608.69 2503.64,1610.19 2502,1612.5C 2497.17,1620.83 2492.33,1629.17 2487.5,1637.5C 2507.88,1638.05 2528.21,1638.88 2548.5,1640C 2558.04,1645.98 2560.54,1654.15 2556,1664.5C 2540.33,1691.17 2524.67,1717.83 2509,1744.5C 2505.14,1749.04 2500.3,1751.87 2494.5,1753C 2453.17,1753.5 2411.83,1753.67 2370.5,1753.5C 2370.5,1738.83 2370.5,1724.17 2370.5,1709.5C 2357.48,1709.83 2344.48,1709.5 2331.5,1708.5C 2338.71,1695.92 2346.04,1683.42 2353.5,1671C 2359.16,1670.5 2364.82,1670.33 2370.5,1670.5C 2370.33,1660.83 2370.5,1651.16 2371,1641.5C 2383.08,1620.34 2395.41,1599.34 2408,1578.5C 2408.5,1623.83 2408.67,1669.17 2408.5,1714.5C 2431.9,1714.97 2455.23,1714.47 2478.5,1713C 2486.44,1702.3 2493.77,1691.13 2500.5,1679.5C 2479.8,1678.94 2459.13,1678.11 2438.5,1677C 2427.69,1670.59 2425.19,1661.75 2431,1650.5C 2445.92,1625.66 2460.59,1600.66 2475,1575.5C 2478.67,1571.92 2482.84,1569.26 2487.5,1567.5 Z"/></g>
<g><path style="opacity:0.935" fill="#fefffe" d="M 1204.5,1660.5 C 1213.23,1659.88 1221.56,1661.38 1229.5,1665C 1231.21,1666.51 1232.87,1668.01 1234.5,1669.5C 1231.52,1672.98 1228.35,1676.32 1225,1679.5C 1217.39,1673.78 1209.39,1673.11 1201,1677.5C 1197.64,1682.77 1198.81,1686.94 1204.5,1690C 1212.84,1690.73 1220.84,1692.73 1228.5,1696C 1235.59,1702.27 1238.09,1710.1 1236,1719.5C 1232.99,1728.51 1226.83,1734.01 1217.5,1736C 1206.2,1737.91 1195.53,1736.24 1185.5,1731C 1183.98,1729.65 1182.65,1728.15 1181.5,1726.5C 1184.48,1723.02 1187.65,1719.68 1191,1716.5C 1198.18,1722.2 1206.34,1724.03 1215.5,1722C 1222.01,1718.43 1223.01,1713.77 1218.5,1708C 1211.25,1706.06 1203.91,1704.39 1196.5,1703C 1188.01,1699.33 1183.68,1692.83 1183.5,1683.5C 1183.85,1675.63 1187.18,1669.46 1193.5,1665C 1197.16,1663.18 1200.82,1661.68 1204.5,1660.5 Z"/></g>
<g><path style="opacity:0.956" fill="#fefffe" d="M 976.5,1661.5 C 988.505,1661.33 1000.5,1661.5 1012.5,1662C 1025.47,1666.09 1031.3,1674.93 1030,1688.5C 1028.17,1699.67 1021.67,1706.17 1010.5,1708C 1004.18,1708.5 997.842,1708.67 991.5,1708.5C 991.5,1717.83 991.5,1727.17 991.5,1736.5C 986.5,1736.5 981.5,1736.5 976.5,1736.5C 976.5,1711.5 976.5,1686.5 976.5,1661.5 Z M 991.5,1675.5 C 997.176,1675.33 1002.84,1675.5 1008.5,1676C 1013.73,1678.63 1015.56,1682.8 1014,1688.5C 1013.22,1690.29 1012.05,1691.79 1010.5,1693C 1004.26,1694.37 997.925,1694.87 991.5,1694.5C 991.5,1688.17 991.5,1681.83 991.5,1675.5 Z"/></g>
<g><path style="opacity:0.939" fill="#fefffe" d="M 1046.5,1661.5 C 1058.84,1661.33 1071.17,1661.5 1083.5,1662C 1098.09,1667.69 1103.26,1678.19 1099,1693.5C 1096.63,1698.7 1092.8,1702.37 1087.5,1704.5C 1093.09,1714.68 1098.42,1725.01 1103.5,1735.5C 1097.5,1736.83 1091.5,1736.83 1085.5,1735.5C 1080.83,1726.17 1076.17,1716.83 1071.5,1707.5C 1068.23,1706.51 1064.9,1706.18 1061.5,1706.5C 1061.5,1716.5 1061.5,1726.5 1061.5,1736.5C 1056.5,1736.5 1051.5,1736.5 1046.5,1736.5C 1046.5,1711.5 1046.5,1686.5 1046.5,1661.5 Z M 1061.5,1675.5 C 1067.51,1675.33 1073.51,1675.5 1079.5,1676C 1085.21,1679.79 1086.38,1684.62 1083,1690.5C 1081.58,1691.46 1080.08,1692.29 1078.5,1693C 1072.84,1693.5 1067.18,1693.67 1061.5,1693.5C 1061.5,1687.5 1061.5,1681.5 1061.5,1675.5 Z"/></g>
<g><path style="opacity:0.924" fill="#fefffe" d="M 1119.5,1661.5 C 1136.17,1661.5 1152.83,1661.5 1169.5,1661.5C 1169.5,1666.17 1169.5,1670.83 1169.5,1675.5C 1158.17,1675.5 1146.83,1675.5 1135.5,1675.5C 1135.5,1680.83 1135.5,1686.17 1135.5,1691.5C 1145.17,1691.5 1154.83,1691.5 1164.5,1691.5C 1164.5,1696.17 1164.5,1700.83 1164.5,1705.5C 1154.83,1705.5 1145.17,1705.5 1135.5,1705.5C 1135.5,1711.17 1135.5,1716.83 1135.5,1722.5C 1146.83,1722.5 1158.17,1722.5 1169.5,1722.5C 1169.5,1727.17 1169.5,1731.83 1169.5,1736.5C 1152.83,1736.5 1136.17,1736.5 1119.5,1736.5C 1119.5,1711.5 1119.5,1686.5 1119.5,1661.5 Z"/></g>
<g><path style="opacity:0.936" fill="#fefffe" d="M 1254.5,1661.5 C 1271.17,1661.5 1287.83,1661.5 1304.5,1661.5C 1304.5,1666.17 1304.5,1670.83 1304.5,1675.5C 1292.83,1675.5 1281.17,1675.5 1269.5,1675.5C 1269.5,1680.83 1269.5,1686.17 1269.5,1691.5C 1279.17,1691.5 1288.83,1691.5 1298.5,1691.5C 1298.5,1696.17 1298.5,1700.83 1298.5,1705.5C 1288.83,1705.5 1279.17,1705.5 1269.5,1705.5C 1269.5,1711.17 1269.5,1716.83 1269.5,1722.5C 1281.17,1722.5 1292.83,1722.5 1304.5,1722.5C 1304.5,1727.17 1304.5,1731.83 1304.5,1736.5C 1287.83,1736.5 1271.17,1736.5 1254.5,1736.5C 1254.5,1711.5 1254.5,1686.5 1254.5,1661.5 Z"/></g>
<g><path style="opacity:0.963" fill="#fefffe" d="M 1322.5,1661.5 C 1327.43,1661.2 1332.26,1661.53 1337,1662.5C 1346,1676.5 1355,1690.5 1364,1704.5C 1364.5,1690.17 1364.67,1675.84 1364.5,1661.5C 1369.5,1661.5 1374.5,1661.5 1379.5,1661.5C 1379.5,1686.5 1379.5,1711.5 1379.5,1736.5C 1374.79,1736.83 1370.12,1736.49 1365.5,1735.5C 1356.33,1721.17 1347.17,1706.83 1338,1692.5C 1337.5,1707.16 1337.33,1721.83 1337.5,1736.5C 1332.5,1736.5 1327.5,1736.5 1322.5,1736.5C 1322.5,1711.5 1322.5,1686.5 1322.5,1661.5 Z"/></g>
<g><path style="opacity:0.953" fill="#fefffe" d="M 1395.5,1661.5 C 1413.5,1661.5 1431.5,1661.5 1449.5,1661.5C 1449.5,1666.17 1449.5,1670.83 1449.5,1675.5C 1443.17,1675.5 1436.83,1675.5 1430.5,1675.5C 1430.5,1695.83 1430.5,1716.17 1430.5,1736.5C 1425.5,1736.5 1420.5,1736.5 1415.5,1736.5C 1415.5,1716.17 1415.5,1695.83 1415.5,1675.5C 1408.83,1675.5 1402.17,1675.5 1395.5,1675.5C 1395.5,1670.83 1395.5,1666.17 1395.5,1661.5 Z"/></g>
<g><path style="opacity:0.922" fill="#fefffe" d="M 1465.5,1661.5 C 1482.17,1661.5 1498.83,1661.5 1515.5,1661.5C 1515.5,1666.17 1515.5,1670.83 1515.5,1675.5C 1504.17,1675.5 1492.83,1675.5 1481.5,1675.5C 1481.5,1680.83 1481.5,1686.17 1481.5,1691.5C 1491.17,1691.5 1500.83,1691.5 1510.5,1691.5C 1510.5,1696.17 1510.5,1700.83 1510.5,1705.5C 1500.83,1705.5 1491.17,1705.5 1481.5,1705.5C 1481.5,1711.17 1481.5,1716.83 1481.5,1722.5C 1492.83,1722.5 1504.17,1722.5 1515.5,1722.5C 1515.5,1727.17 1515.5,1731.83 1515.5,1736.5C 1498.83,1736.5 1482.17,1736.5 1465.5,1736.5C 1465.5,1711.5 1465.5,1686.5 1465.5,1661.5 Z"/></g>
<g><path style="opacity:0.932" fill="#fefffe" d="M 1533.5,1661.5 C 1545.17,1661.33 1556.84,1661.5 1568.5,1662C 1577.82,1663.99 1583.98,1669.49 1587,1678.5C 1588.98,1692.16 1588.98,1705.83 1587,1719.5C 1583.53,1729.67 1576.36,1735.17 1565.5,1736C 1554.84,1736.5 1544.17,1736.67 1533.5,1736.5C 1533.5,1711.5 1533.5,1686.5 1533.5,1661.5 Z M 1549.5,1675.5 C 1554.51,1675.33 1559.51,1675.5 1564.5,1676C 1568.33,1677.17 1570.83,1679.67 1572,1683.5C 1574.2,1694.59 1573.87,1705.59 1571,1716.5C 1568.9,1719.47 1566.07,1721.3 1562.5,1722C 1558.18,1722.5 1553.85,1722.67 1549.5,1722.5C 1549.5,1706.83 1549.5,1691.17 1549.5,1675.5 Z"/></g>
<g><path style="opacity:0.932" fill="#fefffe" d="M 1636.5,1661.5 C 1649.17,1661.33 1661.84,1661.5 1674.5,1662C 1688.12,1666.41 1692.96,1675.58 1689,1689.5C 1687.6,1692.9 1685.43,1695.74 1682.5,1698C 1688.49,1701.81 1691.49,1707.31 1691.5,1714.5C 1690.99,1726.85 1684.65,1734.01 1672.5,1736C 1660.5,1736.5 1648.5,1736.67 1636.5,1736.5C 1636.5,1711.5 1636.5,1686.5 1636.5,1661.5 Z M 1652.5,1675.5 C 1658.51,1675.33 1664.51,1675.5 1670.5,1676C 1675.81,1680.76 1675.81,1685.43 1670.5,1690C 1664.59,1691.36 1658.59,1691.86 1652.5,1691.5C 1652.5,1686.17 1652.5,1680.83 1652.5,1675.5 Z M 1652.5,1705.5 C 1658.51,1705.33 1664.51,1705.5 1670.5,1706C 1675.74,1709.27 1676.9,1713.77 1674,1719.5C 1672.58,1720.46 1671.08,1721.29 1669.5,1722C 1663.84,1722.5 1658.18,1722.67 1652.5,1722.5C 1652.5,1716.83 1652.5,1711.17 1652.5,1705.5 Z"/></g>
<g><path style="opacity:0.937" fill="#fefffe" d="M 1702.5,1661.5 C 1708.21,1661.17 1713.87,1661.5 1719.5,1662.5C 1723.67,1671.5 1727.83,1680.5 1732,1689.5C 1736.46,1680.63 1740.62,1671.63 1744.5,1662.5C 1750.17,1661.17 1755.83,1661.17 1761.5,1662.5C 1754.33,1676.83 1747.17,1691.17 1740,1705.5C 1739.5,1715.83 1739.33,1726.16 1739.5,1736.5C 1734.5,1736.5 1729.5,1736.5 1724.5,1736.5C 1724.67,1726.16 1724.5,1715.83 1724,1705.5C 1716.53,1690.89 1709.36,1676.23 1702.5,1661.5 Z"/></g>
<g><path style="opacity:0.868" fill="#fefffe" d="M 2449.5,1851.5 C 2445.83,1851.5 2442.17,1851.5 2438.5,1851.5C 2434.89,1849.99 2432.39,1847.32 2431,1843.5C 2428.58,1835.22 2429.25,1827.22 2433,1819.5C 2439.37,1812.77 2446.53,1811.77 2454.5,1816.5C 2455.83,1811.17 2455.83,1805.83 2454.5,1800.5C 2452.93,1799.69 2451.26,1799.36 2449.5,1799.5C 2449.5,1798.5 2449.5,1797.5 2449.5,1796.5C 2453.52,1796.35 2457.52,1796.02 2461.5,1795.5C 2461.5,1812.83 2461.5,1830.17 2461.5,1847.5C 2463.17,1847.5 2464.83,1847.5 2466.5,1847.5C 2466.5,1848.5 2466.5,1849.5 2466.5,1850.5C 2462.83,1850.5 2459.17,1850.5 2455.5,1850.5C 2455.66,1849.13 2455.49,1847.79 2455,1846.5C 2453.27,1848.4 2451.44,1850.07 2449.5,1851.5 Z M 2444.5,1817.5 C 2453.05,1818.39 2456.72,1823.22 2455.5,1832C 2456.68,1840.18 2453.35,1845.02 2445.5,1846.5C 2442.89,1846.44 2440.72,1845.44 2439,1843.5C 2435.67,1836.17 2435.67,1828.83 2439,1821.5C 2440.5,1819.53 2442.33,1818.2 2444.5,1817.5 Z"/></g>
<g><path style="opacity:0.788" fill="#fefffe" d="M 2535.5,1797.5 C 2540.49,1797.33 2542.33,1799.66 2541,1804.5C 2537.06,1807.63 2534.56,1806.8 2533.5,1802C 2533.76,1800.21 2534.43,1798.71 2535.5,1797.5 Z"/></g>
<g><path style="opacity:0.916" fill="#fefffe" d="M 1941.5,1851.5 C 1939.5,1851.5 1937.5,1851.5 1935.5,1851.5C 1935.14,1850.13 1934.31,1849.13 1933,1848.5C 1930.52,1849.04 1928.35,1850.04 1926.5,1851.5C 1921.83,1851.5 1917.17,1851.5 1912.5,1851.5C 1905.42,1849.85 1900.58,1845.51 1898,1838.5C 1895.51,1828.57 1896.17,1818.9 1900,1809.5C 1906.31,1800.95 1914.81,1797.45 1925.5,1799C 1928,1799.37 1930.33,1800.21 1932.5,1801.5C 1934.85,1799.77 1937.52,1799.1 1940.5,1799.5C 1940.5,1805.5 1940.5,1811.5 1940.5,1817.5C 1938.4,1817.8 1936.4,1817.47 1934.5,1816.5C 1930.03,1804.39 1922.87,1802.39 1913,1810.5C 1910.56,1818.31 1909.9,1826.31 1911,1834.5C 1914.19,1845.23 1920.19,1847.23 1929,1840.5C 1931.04,1834.81 1929.2,1832.15 1923.5,1832.5C 1923.5,1830.5 1923.5,1828.5 1923.5,1826.5C 1931.17,1826.5 1938.83,1826.5 1946.5,1826.5C 1946.5,1828.5 1946.5,1830.5 1946.5,1832.5C 1944.83,1832.5 1943.17,1832.5 1941.5,1832.5C 1941.5,1838.83 1941.5,1845.17 1941.5,1851.5 Z"/></g>
<g><path style="opacity:0.934" fill="#fefffe" d="M 2084.5,1799.5 C 2091.83,1799.5 2099.17,1799.5 2106.5,1799.5C 2106.5,1801.83 2106.5,1804.17 2106.5,1806.5C 2104.83,1806.5 2103.17,1806.5 2101.5,1806.5C 2101.5,1811.5 2101.5,1816.5 2101.5,1821.5C 2107.17,1821.5 2112.83,1821.5 2118.5,1821.5C 2118.5,1816.5 2118.5,1811.5 2118.5,1806.5C 2116.83,1806.5 2115.17,1806.5 2113.5,1806.5C 2113.5,1804.17 2113.5,1801.83 2113.5,1799.5C 2121.17,1799.5 2128.83,1799.5 2136.5,1799.5C 2136.66,1801.53 2136.5,1803.53 2136,1805.5C 2134.64,1806.38 2133.14,1806.71 2131.5,1806.5C 2131.33,1818.84 2131.5,1831.17 2132,1843.5C 2133.36,1844.38 2134.86,1844.71 2136.5,1844.5C 2136.5,1846.5 2136.5,1848.5 2136.5,1850.5C 2128.83,1850.5 2121.17,1850.5 2113.5,1850.5C 2113.5,1848.5 2113.5,1846.5 2113.5,1844.5C 2115.14,1844.71 2116.64,1844.38 2118,1843.5C 2118.5,1838.51 2118.67,1833.51 2118.5,1828.5C 2112.83,1828.5 2107.17,1828.5 2101.5,1828.5C 2101.33,1833.51 2101.5,1838.51 2102,1843.5C 2103.36,1844.38 2104.86,1844.71 2106.5,1844.5C 2106.5,1846.5 2106.5,1848.5 2106.5,1850.5C 2099.17,1850.5 2091.83,1850.5 2084.5,1850.5C 2084.5,1848.5 2084.5,1846.5 2084.5,1844.5C 2085.83,1844.5 2087.17,1844.5 2088.5,1844.5C 2088.5,1831.83 2088.5,1819.17 2088.5,1806.5C 2087.17,1806.5 2085.83,1806.5 2084.5,1806.5C 2084.5,1804.17 2084.5,1801.83 2084.5,1799.5 Z"/></g>
<g><path style="opacity:0.838" fill="#fefffe" d="M 2268.5,1799.5 C 2280.17,1799.5 2291.83,1799.5 2303.5,1799.5C 2303.5,1804.17 2303.5,1808.83 2303.5,1813.5C 2302.5,1813.5 2301.5,1813.5 2300.5,1813.5C 2300.2,1810.42 2299.2,1807.59 2297.5,1805C 2292.29,1803.6 2286.96,1803.1 2281.5,1803.5C 2281.5,1810.17 2281.5,1816.83 2281.5,1823.5C 2288.84,1824.75 2292.84,1821.75 2293.5,1814.5C 2294.5,1814.5 2295.5,1814.5 2296.5,1814.5C 2296.5,1821.83 2296.5,1829.17 2296.5,1836.5C 2293.36,1835.92 2291.86,1833.92 2292,1830.5C 2289.1,1827.77 2285.6,1826.77 2281.5,1827.5C 2281.5,1834.17 2281.5,1840.83 2281.5,1847.5C 2284.83,1847.5 2288.17,1847.5 2291.5,1847.5C 2291.5,1848.5 2291.5,1849.5 2291.5,1850.5C 2283.83,1850.5 2276.17,1850.5 2268.5,1850.5C 2268.5,1849.5 2268.5,1848.5 2268.5,1847.5C 2270.5,1847.5 2272.5,1847.5 2274.5,1847.5C 2274.5,1832.83 2274.5,1818.17 2274.5,1803.5C 2272.5,1803.17 2270.5,1802.83 2268.5,1802.5C 2268.5,1801.5 2268.5,1800.5 2268.5,1799.5 Z"/></g>
<g><path style="opacity:0.866" fill="#fefffe" d="M 2521.5,1851.5 C 2518.5,1851.5 2515.5,1851.5 2512.5,1851.5C 2510.86,1850.68 2509.69,1849.35 2509,1847.5C 2508.5,1837.84 2508.33,1828.17 2508.5,1818.5C 2506.5,1818.5 2504.5,1818.5 2502.5,1818.5C 2502.5,1817.17 2502.5,1815.83 2502.5,1814.5C 2504.5,1814.5 2506.5,1814.5 2508.5,1814.5C 2508.18,1811.1 2508.51,1807.77 2509.5,1804.5C 2511.07,1803.69 2512.74,1803.36 2514.5,1803.5C 2514.5,1807.17 2514.5,1810.83 2514.5,1814.5C 2517.17,1814.5 2519.83,1814.5 2522.5,1814.5C 2522.5,1815.83 2522.5,1817.17 2522.5,1818.5C 2519.83,1818.5 2517.17,1818.5 2514.5,1818.5C 2514.33,1827.51 2514.5,1836.51 2515,1845.5C 2515.74,1846.57 2516.74,1847.24 2518,1847.5C 2527.6,1840.56 2528.77,1841.9 2521.5,1851.5 Z"/></g>
<g><path style="opacity:0.906" fill="#fefffe" d="M 1973.5,1851.5 C 1969.17,1851.5 1964.83,1851.5 1960.5,1851.5C 1949.6,1845.69 1946.1,1836.69 1950,1824.5C 1955.86,1813.58 1964.69,1810.41 1976.5,1815C 1982.09,1819.82 1984.42,1825.98 1983.5,1833.5C 1976.17,1833.5 1968.83,1833.5 1961.5,1833.5C 1960.89,1841.73 1964.56,1845.23 1972.5,1844C 1974.24,1841.96 1976.07,1840.13 1978,1838.5C 1979.44,1839.15 1980.94,1839.48 1982.5,1839.5C 1981.79,1845.21 1978.79,1849.21 1973.5,1851.5 Z M 1964.5,1818.5 C 1966.72,1818.18 1968.56,1818.84 1970,1820.5C 1970.5,1823.15 1970.66,1825.81 1970.5,1828.5C 1967.5,1828.5 1964.5,1828.5 1961.5,1828.5C 1961.7,1824.91 1962.7,1821.57 1964.5,1818.5 Z"/></g>
<g><path style="opacity:0.903" fill="#fefffe" d="M 1988.5,1813.5 C 1992.83,1813.5 1997.17,1813.5 2001.5,1813.5C 2001.49,1815.31 2001.99,1816.98 2003,1818.5C 2004.11,1816.19 2005.94,1814.69 2008.5,1814C 2012.5,1813.33 2016.5,1813.33 2020.5,1814C 2023.95,1815.73 2025.79,1818.56 2026,1822.5C 2026.5,1829.83 2026.67,1837.16 2026.5,1844.5C 2027.83,1844.5 2029.17,1844.5 2030.5,1844.5C 2030.5,1846.5 2030.5,1848.5 2030.5,1850.5C 2023.83,1850.5 2017.17,1850.5 2010.5,1850.5C 2010.5,1848.5 2010.5,1846.5 2010.5,1844.5C 2011.5,1844.5 2012.5,1844.5 2013.5,1844.5C 2013.67,1837.16 2013.5,1829.83 2013,1822.5C 2009.08,1819.94 2006.08,1820.94 2004,1825.5C 2003.5,1831.82 2003.33,1838.16 2003.5,1844.5C 2004.83,1844.5 2006.17,1844.5 2007.5,1844.5C 2007.5,1846.5 2007.5,1848.5 2007.5,1850.5C 2000.5,1850.5 1993.5,1850.5 1986.5,1850.5C 1986.5,1848.5 1986.5,1846.5 1986.5,1844.5C 1988.17,1844.5 1989.83,1844.5 1991.5,1844.5C 1991.5,1836.5 1991.5,1828.5 1991.5,1820.5C 1989.83,1820.5 1988.17,1820.5 1986.5,1820.5C 1986.18,1817.79 1986.85,1815.46 1988.5,1813.5 Z"/></g>
<g><path style="opacity:0.914" fill="#fefffe" d="M 2057.5,1851.5 C 2053.17,1851.5 2048.83,1851.5 2044.5,1851.5C 2036.92,1847.87 2032.92,1841.7 2032.5,1833C 2035.34,1814.91 2045.34,1809.24 2062.5,1816C 2066.69,1821.07 2068.36,1826.91 2067.5,1833.5C 2060.17,1833.5 2052.83,1833.5 2045.5,1833.5C 2044.96,1841.67 2048.63,1845.17 2056.5,1844C 2058.38,1841.95 2060.38,1840.12 2062.5,1838.5C 2064.44,1838.8 2066.11,1839.64 2067.5,1841C 2065.31,1845.69 2061.98,1849.19 2057.5,1851.5 Z M 2049.5,1818.5 C 2051.39,1818.3 2052.89,1818.96 2054,1820.5C 2054.82,1823.12 2055.32,1825.78 2055.5,1828.5C 2052.17,1828.5 2048.83,1828.5 2045.5,1828.5C 2045.63,1824.57 2046.97,1821.24 2049.5,1818.5 Z"/></g>
<g><path style="opacity:0.887" fill="#fefffe" d="M 2173.5,1851.5 C 2170.17,1851.5 2166.83,1851.5 2163.5,1851.5C 2162.5,1850.32 2161.66,1848.98 2161,1847.5C 2159.6,1849.07 2158.1,1850.4 2156.5,1851.5C 2152.83,1851.5 2149.17,1851.5 2145.5,1851.5C 2139.19,1847.01 2138.03,1841.35 2142,1834.5C 2143.42,1833.54 2144.92,1832.71 2146.5,1832C 2150.82,1831.5 2155.15,1831.33 2159.5,1831.5C 2159.85,1827.36 2159.35,1823.36 2158,1819.5C 2155.38,1818.08 2152.88,1818.24 2150.5,1820C 2151.45,1820.48 2152.45,1820.65 2153.5,1820.5C 2154.81,1827.85 2151.81,1830.68 2144.5,1829C 2139.68,1822.45 2141.01,1817.45 2148.5,1814C 2153.83,1813.33 2159.17,1813.33 2164.5,1814C 2169.57,1815.63 2172.07,1819.13 2172,1824.5C 2172.17,1831.52 2172.67,1838.52 2173.5,1845.5C 2174.17,1845.17 2174.83,1844.83 2175.5,1844.5C 2178.56,1848.03 2177.89,1850.37 2173.5,1851.5 Z M 2156.5,1835.5 C 2157.5,1835.5 2158.5,1835.5 2159.5,1835.5C 2159.66,1838.19 2159.5,1840.85 2159,1843.5C 2155.18,1846.5 2153.02,1845.5 2152.5,1840.5C 2152.42,1837.59 2153.75,1835.92 2156.5,1835.5 Z"/></g>
<g><path style="opacity:0.907" fill="#fefffe" d="M 2213.5,1851.5 C 2210.17,1851.5 2206.83,1851.5 2203.5,1851.5C 2202.2,1850.36 2201.03,1849.03 2200,1847.5C 2198.6,1849.07 2197.1,1850.4 2195.5,1851.5C 2191.83,1851.5 2188.17,1851.5 2184.5,1851.5C 2182.52,1850.35 2181.02,1848.69 2180,1846.5C 2177.65,1839.41 2179.81,1834.58 2186.5,1832C 2190.82,1831.5 2195.15,1831.33 2199.5,1831.5C 2200.08,1826.88 2199.08,1822.72 2196.5,1819C 2193.95,1818.15 2191.61,1818.48 2189.5,1820C 2193.84,1821.7 2194.51,1824.37 2191.5,1828C 2182.36,1830.86 2179.2,1827.7 2182,1818.5C 2185.68,1814.27 2190.35,1812.61 2196,1813.5C 2203.23,1812.23 2208.23,1814.89 2211,1821.5C 2211.33,1829.17 2211.67,1836.83 2212,1844.5C 2212.74,1845.64 2213.57,1845.64 2214.5,1844.5C 2217.31,1847.37 2216.98,1849.7 2213.5,1851.5 Z M 2195.5,1835.5 C 2196.83,1835.5 2198.17,1835.5 2199.5,1835.5C 2200.38,1840.02 2198.88,1843.36 2195,1845.5C 2191.79,1844.2 2190.79,1841.87 2192,1838.5C 2193.15,1837.36 2194.31,1836.36 2195.5,1835.5 Z"/></g>
<g><path style="opacity:0.896" fill="#fefffe" d="M 2240.5,1851.5 C 2236.83,1851.5 2233.17,1851.5 2229.5,1851.5C 2228.36,1850.66 2227.03,1849.99 2225.5,1849.5C 2224.48,1849.86 2223.81,1850.52 2223.5,1851.5C 2221.83,1851.5 2220.17,1851.5 2218.5,1851.5C 2218.5,1847.17 2218.5,1842.83 2218.5,1838.5C 2222.46,1837.86 2225.12,1839.36 2226.5,1843C 2230.27,1845.51 2234.27,1846.01 2238.5,1844.5C 2239.75,1842.99 2239.75,1841.49 2238.5,1840C 2234.54,1838.87 2230.54,1837.87 2226.5,1837C 2218.63,1832.72 2216.8,1826.55 2221,1818.5C 2222.54,1816.62 2224.38,1815.12 2226.5,1814C 2231.56,1812.99 2236.39,1813.49 2241,1815.5C 2242.4,1813.81 2244.23,1813.14 2246.5,1813.5C 2246.5,1817.5 2246.5,1821.5 2246.5,1825.5C 2244.8,1825.66 2243.13,1825.49 2241.5,1825C 2239.82,1821.32 2236.99,1819.15 2233,1818.5C 2227.85,1819.91 2227.35,1822.07 2231.5,1825C 2236.04,1825.71 2240.38,1827.04 2244.5,1829C 2246.05,1830.21 2247.22,1831.71 2248,1833.5C 2250.58,1841.88 2248.08,1847.88 2240.5,1851.5 Z"/></g>
<g><path style="opacity:0.837" fill="#fefffe" d="M 2328.5,1851.5 C 2324.5,1851.5 2320.5,1851.5 2316.5,1851.5C 2307.91,1845.9 2304.74,1837.9 2307,1827.5C 2308.69,1818.31 2314.19,1813.65 2323.5,1813.5C 2332.73,1814.23 2337.9,1819.23 2339,1828.5C 2340.57,1838.68 2337.07,1846.35 2328.5,1851.5 Z M 2320.5,1817.5 C 2323.75,1817.42 2326.58,1818.42 2329,1820.5C 2333.23,1828 2333.56,1835.67 2330,1843.5C 2322.4,1849.72 2317.07,1848.05 2314,1838.5C 2311.76,1829.91 2313.93,1822.91 2320.5,1817.5 Z"/></g>
<g><path style="opacity:0.811" fill="#fefffe" d="M 2364.5,1851.5 C 2360.83,1851.5 2357.17,1851.5 2353.5,1851.5C 2350.17,1849.53 2348.34,1846.53 2348,1842.5C 2347.83,1834.48 2347.33,1826.48 2346.5,1818.5C 2345.26,1817.75 2343.93,1817.42 2342.5,1817.5C 2342.5,1816.5 2342.5,1815.5 2342.5,1814.5C 2346.24,1814.76 2349.91,1814.43 2353.5,1813.5C 2354.33,1823.48 2354.83,1833.48 2355,1843.5C 2358.33,1846.88 2362.16,1847.38 2366.5,1845C 2368.05,1843.79 2369.22,1842.29 2370,1840.5C 2370.83,1833.14 2370.66,1825.81 2369.5,1818.5C 2368.26,1817.75 2366.93,1817.42 2365.5,1817.5C 2365.5,1816.5 2365.5,1815.5 2365.5,1814.5C 2369.24,1814.76 2372.91,1814.43 2376.5,1813.5C 2377.5,1824.81 2377.83,1836.15 2377.5,1847.5C 2378.83,1847.5 2380.17,1847.5 2381.5,1847.5C 2381.5,1848.5 2381.5,1849.5 2381.5,1850.5C 2378.17,1850.5 2374.83,1850.5 2371.5,1850.5C 2371.66,1849.13 2371.49,1847.79 2371,1846.5C 2369.03,1848.55 2366.87,1850.22 2364.5,1851.5 Z"/></g>
<g><path style="opacity:0.893" fill="#fefffe" d="M 2392.5,1813.5 C 2393.83,1813.5 2395.17,1813.5 2396.5,1813.5C 2396.34,1815.53 2396.5,1817.53 2397,1819.5C 2401.62,1813.95 2407.45,1812.11 2414.5,1814C 2416.29,1814.78 2417.79,1815.95 2419,1817.5C 2420.42,1827.42 2420.92,1837.42 2420.5,1847.5C 2422.17,1847.5 2423.83,1847.5 2425.5,1847.5C 2425.5,1848.5 2425.5,1849.5 2425.5,1850.5C 2420.17,1850.5 2414.83,1850.5 2409.5,1850.5C 2409.5,1849.5 2409.5,1848.5 2409.5,1847.5C 2411.17,1847.5 2412.83,1847.5 2414.5,1847.5C 2414.67,1839.49 2414.5,1831.49 2414,1823.5C 2413.29,1820.05 2411.12,1818.38 2407.5,1818.5C 2402.96,1818.39 2399.8,1820.39 2398,1824.5C 2397.5,1832.16 2397.33,1839.83 2397.5,1847.5C 2399.17,1847.5 2400.83,1847.5 2402.5,1847.5C 2402.5,1848.5 2402.5,1849.5 2402.5,1850.5C 2397.17,1850.5 2391.83,1850.5 2386.5,1850.5C 2386.5,1849.5 2386.5,1848.5 2386.5,1847.5C 2388.17,1847.5 2389.83,1847.5 2391.5,1847.5C 2391.83,1837.81 2391.5,1828.14 2390.5,1818.5C 2389.26,1817.75 2387.93,1817.42 2386.5,1817.5C 2386.5,1816.5 2386.5,1815.5 2386.5,1814.5C 2388.74,1814.79 2390.74,1814.46 2392.5,1813.5 Z"/></g>
<g><path style="opacity:0.84" fill="#fefffe" d="M 2502.5,1851.5 C 2499.5,1851.5 2496.5,1851.5 2493.5,1851.5C 2491.52,1848.23 2489.19,1848.23 2486.5,1851.5C 2482.83,1851.5 2479.17,1851.5 2475.5,1851.5C 2470.49,1847.49 2469.33,1842.49 2472,1836.5C 2473.64,1834.19 2475.8,1832.69 2478.5,1832C 2482.82,1831.5 2487.15,1831.33 2491.5,1831.5C 2491.85,1826.39 2490.52,1821.89 2487.5,1818C 2483.71,1816.88 2480.38,1817.55 2477.5,1820C 2478.45,1820.48 2479.45,1820.65 2480.5,1820.5C 2481.02,1827.14 2478.52,1828.81 2473,1825.5C 2471.65,1819.69 2473.82,1815.86 2479.5,1814C 2486.01,1812.24 2491.51,1813.74 2496,1818.5C 2497.39,1828.1 2497.89,1837.77 2497.5,1847.5C 2499.17,1847.5 2500.83,1847.5 2502.5,1847.5C 2502.5,1848.83 2502.5,1850.17 2502.5,1851.5 Z M 2485.5,1834.5 C 2487.5,1834.5 2489.5,1834.5 2491.5,1834.5C 2492.5,1841.23 2489.83,1845.56 2483.5,1847.5C 2477.55,1845.77 2476.22,1842.27 2479.5,1837C 2481.61,1836.16 2483.61,1835.32 2485.5,1834.5 Z"/></g>
<g><path style="opacity:0.815" fill="#fefffe" d="M 2537.5,1813.5 C 2538.83,1813.5 2540.17,1813.5 2541.5,1813.5C 2541.5,1824.83 2541.5,1836.17 2541.5,1847.5C 2543.17,1847.5 2544.83,1847.5 2546.5,1847.5C 2546.5,1848.5 2546.5,1849.5 2546.5,1850.5C 2540.83,1850.5 2535.17,1850.5 2529.5,1850.5C 2529.5,1849.5 2529.5,1848.5 2529.5,1847.5C 2531.17,1847.5 2532.83,1847.5 2534.5,1847.5C 2534.67,1837.83 2534.5,1828.16 2534,1818.5C 2532.64,1817.62 2531.14,1817.29 2529.5,1817.5C 2529.5,1816.5 2529.5,1815.5 2529.5,1814.5C 2532.39,1814.81 2535.05,1814.47 2537.5,1813.5 Z"/></g>
<g><path style="opacity:0.85" fill="#fefffe" d="M 2572.5,1851.5 C 2568.83,1851.5 2565.17,1851.5 2561.5,1851.5C 2552.97,1846.76 2549.47,1839.43 2551,1829.5C 2552.89,1817.13 2560.06,1811.96 2572.5,1814C 2578.44,1816.03 2581.94,1820.19 2583,1826.5C 2585.4,1837.52 2581.9,1845.85 2572.5,1851.5 Z M 2565.5,1817.5 C 2569.03,1817.35 2571.86,1818.68 2574,1821.5C 2576.93,1828.35 2577.26,1835.35 2575,1842.5C 2570.35,1848.63 2565.35,1848.97 2560,1843.5C 2556.67,1836.15 2556.67,1828.82 2560,1821.5C 2561.5,1819.53 2563.33,1818.2 2565.5,1817.5 Z"/></g>
<g><path style="opacity:0.844" fill="#fefffe" d="M 2595.5,1813.5 C 2596.83,1813.5 2598.17,1813.5 2599.5,1813.5C 2599.34,1815.2 2599.51,1816.87 2600,1818.5C 2606.38,1812.81 2613.21,1812.14 2620.5,1816.5C 2621.9,1818.98 2622.73,1821.65 2623,1824.5C 2623.5,1832.16 2623.67,1839.83 2623.5,1847.5C 2624.83,1847.5 2626.17,1847.5 2627.5,1847.5C 2627.5,1848.5 2627.5,1849.5 2627.5,1850.5C 2622.17,1850.5 2616.83,1850.5 2611.5,1850.5C 2611.5,1849.5 2611.5,1848.5 2611.5,1847.5C 2613.17,1847.5 2614.83,1847.5 2616.5,1847.5C 2616.67,1838.83 2616.5,1830.16 2616,1821.5C 2610.49,1817.19 2605.49,1817.86 2601,1823.5C 2599.6,1831.41 2599.1,1839.41 2599.5,1847.5C 2601.5,1847.5 2603.5,1847.5 2605.5,1847.5C 2605.5,1848.5 2605.5,1849.5 2605.5,1850.5C 2599.83,1850.5 2594.17,1850.5 2588.5,1850.5C 2588.5,1849.5 2588.5,1848.5 2588.5,1847.5C 2590.17,1847.5 2591.83,1847.5 2593.5,1847.5C 2593.67,1837.83 2593.5,1828.16 2593,1818.5C 2591.64,1817.62 2590.14,1817.29 2588.5,1817.5C 2588.5,1816.5 2588.5,1815.5 2588.5,1814.5C 2591.06,1814.8 2593.39,1814.47 2595.5,1813.5 Z"/></g>
</svg>
